<svg id="bfcac049-549a-4729-979a-5af5301a6742" data-name="Layer 1" xmlns="http://www.w3.org/2000/svg" viewBox="0 0 344.72 181.84"><defs><style>.f49396f5-5978-4805-952d-fbc6c15ef6ac{fill:#1b1b1a;}.bb4269df-808e-4baa-bb99-82504a9d301b{fill:#222221;}.b8e18c24-5b8e-4535-818e-0f795f25d6a2{fill:#efefef;}.b37f2259-0251-43d2-be28-7c88d1a8ea0d{fill:#c9c9c9;}.ed6fe1a4-4fc8-4c72-bf37-6e646accef08{fill:#ceddf3;}.a0ba544d-c282-45a3-b476-a207f10efd6f{fill:#4f87c6;}.a37acb8a-b6e8-48a5-974a-1c25201a644a{fill:#d3a0a2;}.b18bb8f0-5bf7-4301-8792-a6eda5b967b9{fill:#9f3340;}.b72e7df7-1123-4c2d-99e1-9311f12c6b1b{fill:#fff;}</style></defs><path class="f49396f5-5978-4805-952d-fbc6c15ef6ac" d="M61.34,167.71a14,14,0,0,1,.49-3.42,13.57,13.57,0,0,1,1.63-3.78,11.2,11.2,0,0,1,1.35-1.79,11.55,11.55,0,0,1,1.25-1.2,1.86,1.86,0,0,1,.59-.36c.1,0,.15.05.15.14s-.07.12-.23.28a10.48,10.48,0,0,0-2.21,2.64,13.2,13.2,0,0,0-1.42,3.11,26.24,26.24,0,0,0-.67,2.79,12.8,12.8,0,0,0-.21,2.12,6.2,6.2,0,0,0,1,3.56.52.52,0,0,1,.11.21.13.13,0,0,1-.15.15c-.11,0-.3-.2-.57-.58a5.88,5.88,0,0,1-.66-1.3A7.49,7.49,0,0,1,61.34,167.71Z"/><path class="f49396f5-5978-4805-952d-fbc6c15ef6ac" d="M66.8,166.25a4.87,4.87,0,0,1,1.09-3.05,3,3,0,0,1,2.35-1.42,1.3,1.3,0,0,1,1.24.89c.08-.39.28-.59.6-.59s.41.13.41.39a1.39,1.39,0,0,1-.06.32l-1,4.08a3.07,3.07,0,0,0-.1.77c0,.4.13.61.38.61h0c.37,0,.7-.6,1-1.79a.65.65,0,0,1,.11-.29s.09,0,.18,0,.22,0,.22.14,0,.11,0,.27-.09.35-.17.59a4.15,4.15,0,0,1-.23.61,1.22,1.22,0,0,1-1.09.85,1.27,1.27,0,0,1-1.25-1.05,2.44,2.44,0,0,1-1.81,1.05,1.58,1.58,0,0,1-1.32-.67A2.72,2.72,0,0,1,66.8,166.25Zm1,.66a2.13,2.13,0,0,0,.19.92.64.64,0,0,0,.64.42,1.72,1.72,0,0,0,1.17-.63,2.54,2.54,0,0,0,.71-1.07l.7-2.84a1,1,0,0,0,0-.2,1.71,1.71,0,0,0-.28-1,.87.87,0,0,0-.75-.44,1.32,1.32,0,0,0-.92.48,3.48,3.48,0,0,0-.76,1.18,11.38,11.38,0,0,0-.48,1.57A7.42,7.42,0,0,0,67.81,166.91Z"/><path class="f49396f5-5978-4805-952d-fbc6c15ef6ac" d="M73.09,172s.07-.12.23-.27a10.85,10.85,0,0,0,2.21-2.64A13.44,13.44,0,0,0,76.94,166a25.55,25.55,0,0,0,.67-2.78,12.9,12.9,0,0,0,.21-2.12,6.27,6.27,0,0,0-.95-3.56.48.48,0,0,1-.11-.22c0-.09,0-.14.15-.14s.3.19.56.58a5.61,5.61,0,0,1,.67,1.29,7.64,7.64,0,0,1,.4,2.58,14,14,0,0,1-.49,3.41,13.76,13.76,0,0,1-1.62,3.79,11.2,11.2,0,0,1-1.35,1.79,10.39,10.39,0,0,1-1.25,1.19,1.69,1.69,0,0,1-.6.37C73.14,172.16,73.09,172.11,73.09,172Z"/><path class="f49396f5-5978-4805-952d-fbc6c15ef6ac" d="M167,167.71a14.11,14.11,0,0,1,.5-3.42,13.83,13.83,0,0,1,1.62-3.78,11.2,11.2,0,0,1,1.35-1.79,11.55,11.55,0,0,1,1.25-1.2,2,2,0,0,1,.59-.36.14.14,0,0,1,.16.14s-.08.12-.23.28a10.31,10.31,0,0,0-2.22,2.64,12.76,12.76,0,0,0-1.41,3.11,24,24,0,0,0-.67,2.79,12.8,12.8,0,0,0-.21,2.12,6.19,6.19,0,0,0,.95,3.56.52.52,0,0,1,.11.21.13.13,0,0,1-.15.15c-.11,0-.3-.2-.57-.58a6.34,6.34,0,0,1-.66-1.3A7.49,7.49,0,0,1,167,167.71Z"/><path class="f49396f5-5978-4805-952d-fbc6c15ef6ac" d="M172.56,166.3a4,4,0,0,1,.16-1.24l1.47-5.93,0-.11a.66.66,0,0,0,0-.13.26.26,0,0,0,0-.14.34.34,0,0,0-.2-.08,2.32,2.32,0,0,0-.52,0c-.24,0-.36-.06-.36-.17a.3.3,0,0,1,.05-.2.23.23,0,0,1,.11-.08l.18,0L175,158a.78.78,0,0,1,.24,0q.21,0,.21.18a.88.88,0,0,1,0,.19l-1.06,4.2a2.4,2.4,0,0,1,1.59-.79h0a1.65,1.65,0,0,1,1.28.61,2.51,2.51,0,0,1,.54,1.73,4.91,4.91,0,0,1-1.09,3,3.05,3.05,0,0,1-2.36,1.41,1.46,1.46,0,0,1-1.26-.66A2.72,2.72,0,0,1,172.56,166.3Zm.84.51a1.78,1.78,0,0,0,.27,1.1.77.77,0,0,0,.61.34,1.26,1.26,0,0,0,.93-.48,4.09,4.09,0,0,0,.66-1,10,10,0,0,0,.58-1.78,8.08,8.08,0,0,0,.26-1.59,2.17,2.17,0,0,0-.19-.92.64.64,0,0,0-.64-.42c-.51,0-1,.37-1.58,1.1a2.27,2.27,0,0,0-.33.7A15.79,15.79,0,0,0,173.4,166.81Z"/><path class="f49396f5-5978-4805-952d-fbc6c15ef6ac" d="M178,172s.07-.12.23-.27a10.85,10.85,0,0,0,2.21-2.64,13.44,13.44,0,0,0,1.41-3.12,23.41,23.41,0,0,0,.67-2.78,12.9,12.9,0,0,0,.21-2.12,6.27,6.27,0,0,0-1-3.56.48.48,0,0,1-.11-.22c0-.09,0-.14.15-.14s.3.19.56.58A5.61,5.61,0,0,1,183,159a7.64,7.64,0,0,1,.4,2.58,14,14,0,0,1-.49,3.41,13.76,13.76,0,0,1-1.62,3.79A11.2,11.2,0,0,1,180,170.6a9.69,9.69,0,0,1-1.25,1.19,1.69,1.69,0,0,1-.6.37C178,172.16,178,172.11,178,172Z"/><path class="f49396f5-5978-4805-952d-fbc6c15ef6ac" d="M269.87,167.71a14,14,0,0,1,.49-3.42,13.83,13.83,0,0,1,1.62-3.78,12.77,12.77,0,0,1,2.61-3,1.86,1.86,0,0,1,.59-.36c.1,0,.15.05.15.14s-.08.12-.23.28a10.73,10.73,0,0,0-2.22,2.64,13.57,13.57,0,0,0-1.41,3.11,26.24,26.24,0,0,0-.67,2.79,12.8,12.8,0,0,0-.21,2.12,6.2,6.2,0,0,0,1,3.56.45.45,0,0,1,.1.21c0,.1,0,.15-.14.15s-.3-.2-.57-.58a5.48,5.48,0,0,1-.66-1.3A7.26,7.26,0,0,1,269.87,167.71Z"/><path class="f49396f5-5978-4805-952d-fbc6c15ef6ac" d="M275.35,166.11a4.36,4.36,0,0,1,1.2-3,3.44,3.44,0,0,1,2.6-1.35,1.72,1.72,0,0,1,1.14.37,1.13,1.13,0,0,1,.45.92.94.94,0,0,1-.23.65.67.67,0,0,1-.53.25.5.5,0,0,1-.37-.14.48.48,0,0,1-.13-.34.25.25,0,0,1,0-.08,1,1,0,0,1,0-.17,1.24,1.24,0,0,1,.1-.2.67.67,0,0,1,.22-.17,1.07,1.07,0,0,1,.37-.12,1,1,0,0,0-1.06-.64,1.76,1.76,0,0,0-1.05.39,3.31,3.31,0,0,0-.91,1.11,7.39,7.39,0,0,0-.54,1.52,6.54,6.54,0,0,0-.25,1.58,1.87,1.87,0,0,0,.3,1.11,1,1,0,0,0,.88.43,4.13,4.13,0,0,0,.57-.05,3.6,3.6,0,0,0,1-.42,4.17,4.17,0,0,0,1.15-1c.08-.11.15-.17.19-.17a.21.21,0,0,1,.16.09.25.25,0,0,1,.07.15q0,.15-.36.54a4.55,4.55,0,0,1-1.14.79,3.64,3.64,0,0,1-1.64.4,2.06,2.06,0,0,1-1.6-.68A2.62,2.62,0,0,1,275.35,166.11Z"/><path class="f49396f5-5978-4805-952d-fbc6c15ef6ac" d="M280.85,172s.08-.12.23-.27a10.88,10.88,0,0,0,2.22-2.64,13.44,13.44,0,0,0,1.41-3.12,23.21,23.21,0,0,0,.66-2.78,12.9,12.9,0,0,0,.21-2.12,6.19,6.19,0,0,0-.95-3.56.55.55,0,0,1-.1-.22c0-.09.05-.14.15-.14s.3.19.56.58a6,6,0,0,1,.67,1.29,7.64,7.64,0,0,1,.4,2.58,14,14,0,0,1-.49,3.41,13.76,13.76,0,0,1-1.62,3.79,11.2,11.2,0,0,1-1.35,1.79,10.39,10.39,0,0,1-1.25,1.19,1.88,1.88,0,0,1-.6.37A.13.13,0,0,1,280.85,172Z"/><path class="bb4269df-808e-4baa-bb99-82504a9d301b" d="M88.69,54s0-.12.07-.3.11-.4.2-.69.19-.53.28-.73a1.37,1.37,0,0,1,1.2-.9h0a1.36,1.36,0,0,1,1,.36,1.66,1.66,0,0,1,.48,1,2.94,2.94,0,0,1,2.44-1.35,2,2,0,0,1,1.19.35,1.5,1.5,0,0,1,.6,1.15,3,3,0,0,1,2.56-1.5,2,2,0,0,1,1.26.4,1.61,1.61,0,0,1,.53,1.37,13.42,13.42,0,0,1-1,3.8,5.1,5.1,0,0,0-.3,1.29c0,.33.12.49.37.49.64,0,1.16-.71,1.58-2.14a.71.71,0,0,1,.1-.25.36.36,0,0,1,.19,0c.17,0,.25,0,.25.15a2.08,2.08,0,0,1-.06.32q-.07.25-.24.66a4.28,4.28,0,0,1-.41.76,2.22,2.22,0,0,1-.62.64,1.46,1.46,0,0,1-.83.26,1.21,1.21,0,0,1-1-.39,1.39,1.39,0,0,1-.34-1,3.48,3.48,0,0,1,.27-1.1,14.85,14.85,0,0,0,1-3.77c0-.75-.26-1.13-.78-1.13-.89,0-1.69.62-2.41,1.84a5.2,5.2,0,0,0-.42,1.23l-.14.56-.14.55-.68,2.73a.61.61,0,0,1-.61.44.48.48,0,0,1-.37-.13.45.45,0,0,1-.12-.31.93.93,0,0,1,0-.24l1.12-4.44a5.51,5.51,0,0,0,.15-1.1c0-.75-.26-1.13-.77-1.13-.88,0-1.67.62-2.38,1.85a6.34,6.34,0,0,0-.42,1.23l-.14.55c-.06.25-.1.44-.14.56l-.67,2.73a.65.65,0,0,1-.65.43.49.49,0,0,1-.38-.13.45.45,0,0,1-.12-.31.69.69,0,0,1,.06-.24l1.28-5.12a3.54,3.54,0,0,0,.12-.86q0-.69-.45-.69c-.25,0-.46.17-.64.51a7.48,7.48,0,0,0-.52,1.52.8.8,0,0,1-.12.34s-.1.05-.2.05S88.69,54.07,88.69,54Z"/><path class="bb4269df-808e-4baa-bb99-82504a9d301b" d="M101.7,63.16a1,1,0,0,1,0-.23.38.38,0,0,1,.09-.13l1.9-2.13a3.48,3.48,0,0,0,1-2.2,1.8,1.8,0,0,0-.35-1.14,1.14,1.14,0,0,0-1-.48,1.31,1.31,0,0,0-.8.27,1.56,1.56,0,0,0-.54.73h.13a.48.48,0,0,1,.38.16.57.57,0,0,1,.14.37.49.49,0,0,1-.17.4.6.6,0,0,1-.34.13l-.15,0a.49.49,0,0,1-.23-.15.53.53,0,0,1-.14-.39,1.79,1.79,0,0,1,.53-1.25,1.74,1.74,0,0,1,1.32-.55,2.12,2.12,0,0,1,1.49.54,1.88,1.88,0,0,1,.51,2,2.67,2.67,0,0,1-.21.48,3.15,3.15,0,0,1-.44.54c-.21.23-.4.42-.57.58l-.83.74-1,1h1.78a2.53,2.53,0,0,0,.93-.08,2.83,2.83,0,0,0,.22-.88h.25l-.28,1.72Z"/><path class="bb4269df-808e-4baa-bb99-82504a9d301b" d="M107.89,57.21a.88.88,0,0,1-.25-.63.92.92,0,0,1,.24-.63.85.85,0,0,1,.67-.27.88.88,0,0,1,.8.49,2.55,2.55,0,0,1,.29,1.3,4.15,4.15,0,0,1-.36,1.7,4.71,4.71,0,0,1-.7,1.21c-.24.26-.4.39-.5.39s-.16-.06-.16-.18a.38.38,0,0,1,.11-.19,4.25,4.25,0,0,0,1.24-2.93c0-.17,0-.26,0-.26l0,0a.94.94,0,0,1-.64.25A.84.84,0,0,1,107.89,57.21Z"/><path class="bb4269df-808e-4baa-bb99-82504a9d301b" d="M111.87,57.26c0-.14,0-.23.1-.26a1.19,1.19,0,0,1,.41,0,3,3,0,0,0,1.08-.12.78.78,0,0,0,.35-.57L116.14,47a1.13,1.13,0,0,0,0-.32c0-.12-.09-.21-.26-.24a5.18,5.18,0,0,0-.82-.05h-.28a.18.18,0,0,1-.13-.06.25.25,0,0,1,0-.15.28.28,0,0,1,.32-.31l1.08,0,1,0,1.05,0,1,0c.16,0,.25.07.25.21s0,.24-.12.27a1,1,0,0,1-.41,0,2.67,2.67,0,0,0-1.07.13.8.8,0,0,0-.35.57l-2.31,9.21a1.8,1.8,0,0,0-.06.37.32.32,0,0,0,0,.16s.11.07.28.1a4.55,4.55,0,0,0,.74,0h.29a.29.29,0,0,1,.13,0,.18.18,0,0,1,.06.15.3.3,0,0,1-.34.33l-1,0c-.47,0-.82,0-1.06,0s-.59,0-1,0l-1,0A.21.21,0,0,1,111.87,57.26Z"/><path class="bb4269df-808e-4baa-bb99-82504a9d301b" d="M118,63.16a1,1,0,0,1,0-.23.38.38,0,0,1,.09-.13l1.9-2.13a3.48,3.48,0,0,0,1-2.2,1.8,1.8,0,0,0-.35-1.14,1.14,1.14,0,0,0-1-.48,1.31,1.31,0,0,0-.8.27,1.48,1.48,0,0,0-.53.73h.12a.48.48,0,0,1,.38.16.57.57,0,0,1,.14.37.49.49,0,0,1-.17.4.6.6,0,0,1-.34.13l-.15,0a.54.54,0,0,1-.23-.15.53.53,0,0,1-.14-.39,1.79,1.79,0,0,1,.53-1.25,1.74,1.74,0,0,1,1.32-.55,2.12,2.12,0,0,1,1.49.54,1.88,1.88,0,0,1,.51,2,2.67,2.67,0,0,1-.21.48,2.73,2.73,0,0,1-.44.54c-.21.23-.4.42-.57.58l-.83.74-1,1h1.78a2.49,2.49,0,0,0,.93-.08,2.83,2.83,0,0,0,.22-.88h.25l-.28,1.72Z"/><path class="bb4269df-808e-4baa-bb99-82504a9d301b" d="M66.59,130.11s0-.12.07-.29.11-.41.2-.69.19-.54.28-.74a1.37,1.37,0,0,1,1.2-.9h0a1.33,1.33,0,0,1,1,.37,1.54,1.54,0,0,1,.47,1,3,3,0,0,1,2.45-1.35,2.08,2.08,0,0,1,1.19.35A1.51,1.51,0,0,1,74,129a3,3,0,0,1,2.56-1.5,2,2,0,0,1,1.26.4,1.62,1.62,0,0,1,.53,1.37,13.24,13.24,0,0,1-1,3.81,5,5,0,0,0-.3,1.28c0,.33.13.49.38.49.63,0,1.16-.71,1.58-2.14a.83.83,0,0,1,.09-.24.31.31,0,0,1,.2,0c.17,0,.25.05.25.16a2.31,2.31,0,0,1-.06.31q-.07.26-.24.66a5.68,5.68,0,0,1-.41.77,2.32,2.32,0,0,1-.62.63,1.41,1.41,0,0,1-.83.26,1.21,1.21,0,0,1-1-.39,1.39,1.39,0,0,1-.34-1,3.48,3.48,0,0,1,.27-1.1,15,15,0,0,0,1-3.77c0-.75-.26-1.13-.77-1.13-.89,0-1.69.62-2.41,1.84a5.2,5.2,0,0,0-.42,1.23l-.14.56c-.06.25-.11.43-.14.55l-.68,2.73a.61.61,0,0,1-.61.44.46.46,0,0,1-.37-.13.45.45,0,0,1-.12-.31,1.13,1.13,0,0,1,0-.24l1.12-4.43A5.68,5.68,0,0,0,73,129c0-.75-.26-1.13-.77-1.13-.88,0-1.67.62-2.38,1.85a5.2,5.2,0,0,0-.42,1.23l-.14.55c-.06.25-.1.44-.14.57l-.67,2.72a.66.66,0,0,1-.65.43.49.49,0,0,1-.38-.13.45.45,0,0,1-.12-.31.81.81,0,0,1,.06-.24l1.28-5.12a3.48,3.48,0,0,0,.12-.86q0-.69-.45-.69c-.25,0-.46.17-.64.52a7.06,7.06,0,0,0-.52,1.52,1,1,0,0,1-.12.33.25.25,0,0,1-.2.06C66.68,130.28,66.59,130.22,66.59,130.11Z"/><path class="bb4269df-808e-4baa-bb99-82504a9d301b" d="M79.94,133.64v-.31a2.43,2.43,0,0,0,1.83-.64c.1,0,.17,0,.18,0a.48.48,0,0,1,0,.22v5.57q0,.3.15.39a2.09,2.09,0,0,0,.81.09h.33v.32c-.23,0-.77,0-1.61,0s-1.38,0-1.61,0V139h.32a2,2,0,0,0,.78-.09c.1,0,.15-.19.15-.39v-5.14A3.17,3.17,0,0,1,79.94,133.64Z"/><path class="bb4269df-808e-4baa-bb99-82504a9d301b" d="M39.83,82.44a2.71,2.71,0,0,1,.1-.67l2.15-8.53v-.13a.54.54,0,0,0,0-.15.25.25,0,0,0,0-.16.35.35,0,0,0-.22-.09,2.79,2.79,0,0,0-.59,0c-.27,0-.41-.06-.42-.19a.39.39,0,0,1,.06-.23.31.31,0,0,1,.13-.09l.2,0L42.94,72a1,1,0,0,1,.28,0c.16,0,.24.06.24.2a1,1,0,0,1-.05.22L41,82.11a3.75,3.75,0,0,0-.11.79c0,.46.15.7.44.7h0q.63,0,1.08-1.92l.12-.42c0-.06.12-.09.25-.09s.26.06.26.17,0,.13-.07.32-.11.44-.2.72a4.18,4.18,0,0,1-.26.7,1.41,1.41,0,0,1-1.22.89,1.38,1.38,0,0,1-1-.44A1.54,1.54,0,0,1,39.83,82.44Z"/><rect class="bb4269df-808e-4baa-bb99-82504a9d301b" x="61.65" y="57.57" width="1" height="0.75" transform="translate(-11.06 101.08) rotate(-73.5)"/><path class="bb4269df-808e-4baa-bb99-82504a9d301b" d="M44.75,118.16,44,118l.56-1.89.72.21Zm.84-2.84-.72-.21.56-1.89.72.21Zm.84-2.84-.72-.21.56-1.89.72.21Zm.84-2.84-.72-.21.56-1.89.71.21Zm.83-2.84-.71-.21.55-1.89.72.21Zm.84-2.84-.72-.21.56-1.89.72.21Zm.84-2.84-.72-.21L49.62,99l.72.21Zm.84-2.83-.72-.22.56-1.89.72.21Zm.84-2.85-.72-.21.56-1.89.72.21Zm.84-2.83-.72-.22.56-1.89.72.21Zm.84-2.84-.72-.22L53,87.66l.72.21ZM54,86.93l-.72-.22.56-1.89.72.21Zm.84-2.84-.72-.21.56-1.9.72.21Zm.83-2.84L54.94,81l.56-1.9.71.22Zm.84-2.84-.71-.21.55-1.9.72.22Zm.84-2.84-.72-.21.56-1.9.72.22Zm.84-2.84-.72-.21.56-1.9.72.22ZM59,69.89l-.72-.21.56-1.9.72.22Zm.84-2.84-.72-.21L59.69,65l.72.21Zm.84-2.84L60,64l.56-1.89.72.21Zm.84-2.84-.72-.21.56-1.89.72.21Z"/><rect class="bb4269df-808e-4baa-bb99-82504a9d301b" x="43.47" y="119.11" width="1" height="0.75" transform="translate(-83.08 127.71) rotate(-73.5)"/><polygon points="43.05 116.8 43.64 120.54 46.17 117.72 43.05 116.8"/><polygon class="bb4269df-808e-4baa-bb99-82504a9d301b" points="63.75 58.29 63.16 54.55 60.63 57.37 63.75 58.29"/><rect class="b8e18c24-5b8e-4535-818e-0f795f25d6a2" x="64.26" y="56.85" width="4.85" height="70.17" transform="translate(28.78 -15.13) rotate(16.46)"/><path class="b37f2259-0251-43d2-be28-7c88d1a8ea0d" d="M59.06,126.64H59l-4.65-1.38a.37.37,0,0,1-.25-.46l19.88-67.3a.37.37,0,0,1,.46-.25l4.65,1.37a.42.42,0,0,1,.23.18.48.48,0,0,1,0,.29L59.42,126.37a.35.35,0,0,1-.18.23A.34.34,0,0,1,59.06,126.64Zm-4.18-2,3.93,1.16L78.48,59.23l-3.93-1.16Z"/><rect class="ed6fe1a4-4fc8-4c72-bf37-6e646accef08" x="52.06" y="106.36" width="9.36" height="38.44" rx="4.12" transform="translate(37.91 -10.93) rotate(16.46)"/><path class="a0ba544d-c282-45a3-b476-a207f10efd6f" d="M53,144.72a4.32,4.32,0,0,1-1.28-.19h0l-1.08-.31a4.52,4.52,0,0,1-3-5.58l8.56-29a4.51,4.51,0,0,1,5.58-3l1.08.32a4.49,4.49,0,0,1,3,5.58l-8.56,29a4.5,4.5,0,0,1-4.3,3.22Zm-1.07-.9a3.76,3.76,0,0,0,4.65-2.53l8.56-29a3.75,3.75,0,0,0-2.53-4.65l-1.08-.32a3.74,3.74,0,0,0-4.65,2.53l-8.56,29a3.74,3.74,0,0,0,2.53,4.65Z"/><rect class="a37acb8a-b6e8-48a5-974a-1c25201a644a" x="72.05" y="38.74" width="9.36" height="38.44" rx="4.12" transform="translate(-9.68 15.76) rotate(-11.04)"/><path class="b18bb8f0-5bf7-4301-8792-a6eda5b967b9" d="M79.06,77.38a4.48,4.48,0,0,1-4.4-3.63L68.87,44.1a4.51,4.51,0,0,1,3.55-5.27l1.11-.21a4.48,4.48,0,0,1,5.26,3.55l5.79,29.65A4.49,4.49,0,0,1,81,77.08l-1.11.22A4.17,4.17,0,0,1,79.06,77.38Zm1.83-1,.07.37-.07-.37a3.74,3.74,0,0,0,3-4.39L78.06,42.31a3.74,3.74,0,0,0-4.39-3l-1.11.22a3.74,3.74,0,0,0-3,4.39l5.78,29.65A3.72,3.72,0,0,0,77,76a3.65,3.65,0,0,0,2.8.57Z"/><rect class="bb4269df-808e-4baa-bb99-82504a9d301b" x="68.63" y="47.6" width="0.75" height="16.11" transform="translate(-4.2 105.66) rotate(-73.22)"/><rect x="48.65" y="115.2" width="0.75" height="16.11" transform="translate(-83.14 134.62) rotate(-73.22)"/><path class="bb4269df-808e-4baa-bb99-82504a9d301b" d="M77.61,101.66c0-.15,0-.23.1-.26a1.15,1.15,0,0,1,.41-.05,2.77,2.77,0,0,0,1.08-.13.76.76,0,0,0,.35-.56l2.32-9.28a.86.86,0,0,0,0-.32c0-.13-.08-.21-.26-.24a5,5,0,0,0-.81,0h-.28a.16.16,0,0,1-.13-.06.25.25,0,0,1,0-.16c0-.2.11-.3.32-.3s.6,0,1.07,0l1,0,1.06,0c.47,0,.81,0,1,0s.24.07.24.2,0,.25-.11.28a1.19,1.19,0,0,1-.41,0,3,3,0,0,0-1.08.12.84.84,0,0,0-.34.58l-2.31,9.2a2.09,2.09,0,0,0-.07.38.24.24,0,0,0,0,.16.52.52,0,0,0,.28.1,4.55,4.55,0,0,0,.74,0h.28a.34.34,0,0,1,.14,0,.17.17,0,0,1,.06.14c0,.22-.12.33-.35.33s-.57,0-1,0l-1.06,0-1.06,0c-.46,0-.81,0-1,0S77.61,101.81,77.61,101.66Z"/><path class="bb4269df-808e-4baa-bb99-82504a9d301b" d="M84,101.89v-.31a2.48,2.48,0,0,0,1.83-.64c.1,0,.17,0,.18,0a.48.48,0,0,1,0,.22v5.57q0,.3.15.39a2.09,2.09,0,0,0,.81.09h.33v.31c-.23,0-.77,0-1.61,0s-1.38,0-1.61,0v-.31h.32a2,2,0,0,0,.78-.09q.15-.09.15-.39v-5.14A3.17,3.17,0,0,1,84,101.89Z"/><path d="M56.74,126.33a.76.76,0,0,1-.21,0,.75.75,0,0,1-.51-.93l20-67.6a.75.75,0,1,1,1.44.43l-20,67.6A.76.76,0,0,1,56.74,126.33Z"/><circle class="b72e7df7-1123-4c2d-99e1-9311f12c6b1b" cx="76.72" cy="57.96" r="2.56"/><path class="bb4269df-808e-4baa-bb99-82504a9d301b" d="M76.72,61a3.07,3.07,0,0,1-2.91-2.09A3,3,0,0,1,74,56.59a3.06,3.06,0,1,1,3.7,4.28A3.2,3.2,0,0,1,76.72,61Zm0-5.12A2,2,0,0,0,74.87,57a2.09,2.09,0,0,0-.11,1.57h0a2.06,2.06,0,0,0,2.61,1.31,2.08,2.08,0,0,0,1.31-2.61A2.06,2.06,0,0,0,76.72,55.9Z"/><circle cx="56.74" cy="125.58" r="1.67"/><path class="bb4269df-808e-4baa-bb99-82504a9d301b" d="M180.38,104a1.5,1.5,0,0,1,.07-.31,5.08,5.08,0,0,1,.24-.65,5.19,5.19,0,0,1,.42-.77,2,2,0,0,1,.62-.63,1.44,1.44,0,0,1,.83-.27,1.27,1.27,0,0,1,.94.38,1.4,1.4,0,0,1,.36,1,2.7,2.7,0,0,1-.22.92,13.27,13.27,0,0,0-1,3.74c0,.87.3,1.31.91,1.31h0a1.88,1.88,0,0,0,1.57-1,2.22,2.22,0,0,0,.24-.57l1.25-5q.15-.63.66-.63a.43.43,0,0,1,.36.14.45.45,0,0,1,.12.31,1,1,0,0,1-.05.23l-1.23,4.91a3.63,3.63,0,0,0-.12.88c0,.47.15.7.44.7h0c.43,0,.81-.68,1.14-2a1.27,1.27,0,0,1,.12-.34.29.29,0,0,1,.21-.06c.17,0,.26.06.26.17s0,.12-.06.3a6.79,6.79,0,0,1-.19.67,3.66,3.66,0,0,1-.27.7,1.39,1.39,0,0,1-1.24,1,1.35,1.35,0,0,1-1.37-1,2.37,2.37,0,0,1-1.89,1,2,2,0,0,1-1.36-.48,1.84,1.84,0,0,1-.55-1.49,11.35,11.35,0,0,1,.89-3.35,5.74,5.74,0,0,0,.4-1.54c0-.33-.12-.49-.37-.49-.68,0-1.21.72-1.58,2.15a.4.4,0,0,1-.11.23.31.31,0,0,1-.2,0C180.47,104.2,180.38,104.14,180.38,104Z"/><path class="bb4269df-808e-4baa-bb99-82504a9d301b" d="M188.94,106.67v-.31a2.4,2.4,0,0,0,1.82-.64.3.3,0,0,1,.19,0,.82.82,0,0,1,0,.22v5.57q0,.3.15.39a2.19,2.19,0,0,0,.82.09h.32v.31c-.23,0-.77,0-1.61,0s-1.37,0-1.6,0V112h.31a2,2,0,0,0,.78-.09q.15-.09.15-.39v-5.14A3.15,3.15,0,0,1,188.94,106.67Z"/><path class="bb4269df-808e-4baa-bb99-82504a9d301b" d="M158.16,41.63a1.47,1.47,0,0,1,.07-.3,5.12,5.12,0,0,1,.24-.66,5.19,5.19,0,0,1,.42-.77,2,2,0,0,1,.62-.63,1.43,1.43,0,0,1,.83-.26,1.27,1.27,0,0,1,.94.37,1.4,1.4,0,0,1,.36,1,2.7,2.7,0,0,1-.22.92,13.27,13.27,0,0,0-1,3.74c0,.87.3,1.31.91,1.31h0a1.88,1.88,0,0,0,1.57-1,2.63,2.63,0,0,0,.24-.57l1.25-5q.15-.63.66-.63a.46.46,0,0,1,.36.14.45.45,0,0,1,.12.31.87.87,0,0,1-.05.23l-1.23,4.92a3.55,3.55,0,0,0-.12.87c0,.47.15.7.43.7h0c.43,0,.81-.68,1.14-2a1.27,1.27,0,0,1,.12-.34.3.3,0,0,1,.21-.05c.17,0,.26.05.26.16s0,.12-.06.3-.1.4-.19.68a4.27,4.27,0,0,1-.27.7,1.4,1.4,0,0,1-1.24.95,1.35,1.35,0,0,1-1.37-1,2.39,2.39,0,0,1-1.89,1,2.08,2.08,0,0,1-1.36-.47,1.88,1.88,0,0,1-.55-1.5,11.24,11.24,0,0,1,.89-3.34,5.87,5.87,0,0,0,.4-1.55c0-.32-.12-.49-.37-.49-.68,0-1.21.72-1.58,2.15a.48.48,0,0,1-.11.23.31.31,0,0,1-.2,0C158.25,41.8,158.16,41.74,158.16,41.63Z"/><path class="bb4269df-808e-4baa-bb99-82504a9d301b" d="M166.37,50a1.1,1.1,0,0,1,0-.24.38.38,0,0,1,.09-.13l1.9-2.13a3.46,3.46,0,0,0,1-2.2,1.84,1.84,0,0,0-.35-1.14,1.13,1.13,0,0,0-1-.47,1.3,1.3,0,0,0-.8.26,1.51,1.51,0,0,0-.53.74h.12a.48.48,0,0,1,.38.15.57.57,0,0,1,.14.37.49.49,0,0,1-.17.4.54.54,0,0,1-.34.13l-.15,0a.54.54,0,0,1-.23-.15.53.53,0,0,1-.14-.39,1.75,1.75,0,0,1,.53-1.24,1.71,1.71,0,0,1,1.32-.56,2.16,2.16,0,0,1,1.49.54,1.81,1.81,0,0,1,.6,1.39,1.73,1.73,0,0,1-.09.56,2.67,2.67,0,0,1-.21.48,3,3,0,0,1-.44.55q-.31.33-.57.57l-.83.74-1,1h1.78a2.49,2.49,0,0,0,.93-.08,2.83,2.83,0,0,0,.22-.88h.25L170,50Z"/><path class="b72e7df7-1123-4c2d-99e1-9311f12c6b1b" d="M192.59,42a10.7,10.7,0,0,0-20.4-1.53l-.93-.36a11.69,11.69,0,0,1,22.3,1.67Z"/><path class="b18bb8f0-5bf7-4301-8792-a6eda5b967b9" d="M193.52,41.92a.76.76,0,0,1-.73-.58,10.44,10.44,0,0,0-19.92-1.49.75.75,0,0,1-1.4-.55A11.94,11.94,0,0,1,194.25,41a.74.74,0,0,1-.56.89A.5.5,0,0,1,193.52,41.92Z"/><polygon class="b18bb8f0-5bf7-4301-8792-a6eda5b967b9" points="195.39 37.99 194.42 43.65 190.41 39.55 195.39 37.99"/><rect class="ed6fe1a4-4fc8-4c72-bf37-6e646accef08" x="161.68" y="106.84" width="9.23" height="37.94" rx="4.06" transform="translate(42.46 -41.96) rotate(16.46)"/><path class="a0ba544d-c282-45a3-b476-a207f10efd6f" d="M162.61,144.71a4.23,4.23,0,0,1-1.26-.19h0l-1.06-.31a4.41,4.41,0,0,1-2.64-2.14,4.36,4.36,0,0,1-.36-3.37l8.45-28.6a4.45,4.45,0,0,1,5.51-3l1.06.32a4.43,4.43,0,0,1,3,5.51l-8.45,28.6a4.43,4.43,0,0,1-4.25,3.18Zm-1.05-.91a3.67,3.67,0,0,0,4.58-2.49l8.45-28.59a3.68,3.68,0,0,0-2.49-4.58l-1.06-.32a3.68,3.68,0,0,0-4.58,2.49L158,138.91a3.64,3.64,0,0,0,.29,2.8,3.68,3.68,0,0,0,2.2,1.78Z"/><rect class="a37acb8a-b6e8-48a5-974a-1c25201a644a" x="181.41" y="40.1" width="9.23" height="37.94" rx="4.06" transform="translate(-7.87 36.71) rotate(-11.04)"/><path class="b18bb8f0-5bf7-4301-8792-a6eda5b967b9" d="M188.33,78.25A4.45,4.45,0,0,1,184,74.66l-5.71-29.27a4.45,4.45,0,0,1,3.51-5.2l1.09-.21a4.44,4.44,0,0,1,5.2,3.5l5.71,29.27a4.43,4.43,0,0,1-3.5,5.2l-1.09.21A4.26,4.26,0,0,1,188.33,78.25Zm-4.61-37.61a4.27,4.27,0,0,0-.71.07l-1.09.21A3.69,3.69,0,0,0,179,45.25l5.71,29.26A3.69,3.69,0,0,0,189,77.43l1.09-.22h0a3.63,3.63,0,0,0,2.35-1.55,3.67,3.67,0,0,0,.56-2.77l-5.71-29.26A3.69,3.69,0,0,0,183.72,40.64Z"/><path d="M166.3,126.56a.76.76,0,0,1-.21,0,.74.74,0,0,1-.51-.93L185.3,58.88a.75.75,0,1,1,1.44.43L167,126A.76.76,0,0,1,166.3,126.56Z"/><circle class="b72e7df7-1123-4c2d-99e1-9311f12c6b1b" cx="186.02" cy="59.07" r="2.53"/><path d="M186,62.1a3.09,3.09,0,0,1-1.36-.32,3,3,0,1,1,4.23-3.67A3,3,0,0,1,187,61.94,2.83,2.83,0,0,1,186,62.1ZM186,57a2,2,0,0,0-.64.1,2.09,2.09,0,0,0-1.18,1,2,2,0,0,0-.11,1.55h0a2,2,0,0,0,1,1.17,2,2,0,0,0,1.55.12,2,2,0,0,0-.64-4Z"/><circle class="a0ba544d-c282-45a3-b476-a207f10efd6f" cx="166.3" cy="125.81" r="1.64"/><path class="a0ba544d-c282-45a3-b476-a207f10efd6f" d="M166.3,126.56a.76.76,0,0,1-.21,0,.75.75,0,0,1-.51-.93l9.25-31.39a.75.75,0,1,1,1.44.42L167,126A.75.75,0,0,1,166.3,126.56Z"/><path class="a0ba544d-c282-45a3-b476-a207f10efd6f" d="M171.85,98.09a7.61,7.61,0,0,1,4.85,1.43q-.06-4.23-.14-8.46Z"/><path class="bb4269df-808e-4baa-bb99-82504a9d301b" d="M284.3,21.79a1.64,1.64,0,0,1,.07-.3,4,4,0,0,1,.24-.66,6.26,6.26,0,0,1,.41-.77,2.36,2.36,0,0,1,.63-.63,1.5,1.5,0,0,1,.83-.26,1.23,1.23,0,0,1,.93.37,1.37,1.37,0,0,1,.37,1,2.91,2.91,0,0,1-.22.92,13.13,13.13,0,0,0-1,3.74c0,.87.31,1.31.92,1.31h0a1.88,1.88,0,0,0,1.56-1,2.22,2.22,0,0,0,.24-.57l1.25-5q.15-.63.66-.63a.48.48,0,0,1,.37.14.47.47,0,0,1,.12.31.93.93,0,0,1-.05.24L290.41,25a3.63,3.63,0,0,0-.12.88c0,.46.14.69.43.69h0c.42,0,.8-.68,1.14-2a1.15,1.15,0,0,1,.12-.33.29.29,0,0,1,.21-.06c.17,0,.25,0,.25.16a1.64,1.64,0,0,1-.05.3c0,.18-.11.41-.19.68a7.42,7.42,0,0,1-.27.7,1.39,1.39,0,0,1-1.24.95,1.33,1.33,0,0,1-1.37-1,2.37,2.37,0,0,1-1.89,1,2,2,0,0,1-1.36-.47,1.88,1.88,0,0,1-.56-1.5,11.64,11.64,0,0,1,.89-3.34,5.59,5.59,0,0,0,.41-1.54c0-.33-.12-.5-.37-.5-.68,0-1.21.72-1.58,2.15,0,.13-.07.21-.11.23a.3.3,0,0,1-.2,0C284.39,22,284.3,21.9,284.3,21.79Z"/><path class="bb4269df-808e-4baa-bb99-82504a9d301b" d="M292.85,24.43v-.31a2.48,2.48,0,0,0,1.83-.63c.1,0,.17,0,.18,0a.4.4,0,0,1,0,.21v5.58a.41.41,0,0,0,.15.38,1.84,1.84,0,0,0,.81.1h.33v.31c-.23,0-.77,0-1.61,0s-1.38,0-1.61,0V29.8h.32a2,2,0,0,0,.78-.09q.15-.09.15-.39V24.17A3,3,0,0,1,292.85,24.43Z"/><path class="bb4269df-808e-4baa-bb99-82504a9d301b" d="M258.41,41.63a1.47,1.47,0,0,1,.07-.3,5.12,5.12,0,0,1,.24-.66,5.19,5.19,0,0,1,.42-.77,2,2,0,0,1,.62-.63,1.43,1.43,0,0,1,.83-.26,1.27,1.27,0,0,1,.94.37,1.4,1.4,0,0,1,.36,1,2.7,2.7,0,0,1-.22.92,13.27,13.27,0,0,0-1,3.74c0,.87.3,1.31.91,1.31h0a1.88,1.88,0,0,0,1.57-1,2.63,2.63,0,0,0,.24-.57l1.25-5q.15-.63.66-.63a.46.46,0,0,1,.36.14.45.45,0,0,1,.12.31.87.87,0,0,1-.05.23l-1.23,4.92a3.55,3.55,0,0,0-.12.87c0,.47.15.7.43.7h0c.43,0,.81-.68,1.14-2a1.27,1.27,0,0,1,.12-.34.3.3,0,0,1,.21-.05c.17,0,.26.05.26.16s0,.12-.06.3-.1.4-.19.68a4.27,4.27,0,0,1-.27.7,1.4,1.4,0,0,1-1.24.95,1.35,1.35,0,0,1-1.37-1,2.39,2.39,0,0,1-1.89,1,2.08,2.08,0,0,1-1.36-.47,1.88,1.88,0,0,1-.55-1.5,11.24,11.24,0,0,1,.89-3.34,5.87,5.87,0,0,0,.4-1.55c0-.32-.12-.49-.37-.49-.68,0-1.21.72-1.58,2.15a.48.48,0,0,1-.11.23.31.31,0,0,1-.2,0C258.5,41.8,258.41,41.74,258.41,41.63Z"/><path class="bb4269df-808e-4baa-bb99-82504a9d301b" d="M266.62,50a1.1,1.1,0,0,1,0-.24.38.38,0,0,1,.09-.13l1.9-2.13a3.46,3.46,0,0,0,1-2.2,1.84,1.84,0,0,0-.35-1.14,1.13,1.13,0,0,0-1-.47,1.3,1.3,0,0,0-.8.26,1.51,1.51,0,0,0-.53.74h.12a.48.48,0,0,1,.38.15.57.57,0,0,1,.14.37.49.49,0,0,1-.17.4.54.54,0,0,1-.34.13l-.15,0a.54.54,0,0,1-.23-.15.53.53,0,0,1-.14-.39,1.75,1.75,0,0,1,.53-1.24,1.71,1.71,0,0,1,1.32-.56,2.16,2.16,0,0,1,1.49.54,1.81,1.81,0,0,1,.6,1.39,1.73,1.73,0,0,1-.09.56,2.67,2.67,0,0,1-.21.48,3,3,0,0,1-.44.55q-.31.33-.57.57l-.83.74-1,1h1.78a2.49,2.49,0,0,0,.93-.08,2.83,2.83,0,0,0,.22-.88h.25L270.28,50Z"/><rect class="ed6fe1a4-4fc8-4c72-bf37-6e646accef08" x="261.93" y="106.84" width="9.23" height="37.94" rx="4.06" transform="translate(46.57 -70.37) rotate(16.46)"/><path class="a0ba544d-c282-45a3-b476-a207f10efd6f" d="M262.86,144.71a4.23,4.23,0,0,1-1.26-.19h0l-1.06-.31a4.41,4.41,0,0,1-2.64-2.14,4.36,4.36,0,0,1-.36-3.37L266,110.1a4.43,4.43,0,0,1,5.51-3l1.06.32a4.44,4.44,0,0,1,3,5.51l-8.45,28.6a4.43,4.43,0,0,1-4.25,3.18Zm-1.05-.91a3.67,3.67,0,0,0,4.58-2.49l8.45-28.59a3.68,3.68,0,0,0-2.49-4.58l-1.06-.32a3.69,3.69,0,0,0-4.58,2.49l-8.45,28.6a3.64,3.64,0,0,0,.29,2.8,3.68,3.68,0,0,0,2.2,1.78Z"/><rect class="a37acb8a-b6e8-48a5-974a-1c25201a644a" x="281.66" y="40.1" width="9.23" height="37.94" rx="4.06" transform="translate(-6.01 55.91) rotate(-11.04)"/><path class="b18bb8f0-5bf7-4301-8792-a6eda5b967b9" d="M288.58,78.25a4.45,4.45,0,0,1-4.35-3.59l-5.71-29.27a4.45,4.45,0,0,1,3.51-5.2l1.09-.21a4.44,4.44,0,0,1,5.2,3.5L294,72.75a4.43,4.43,0,0,1-3.5,5.2l-1.09.21A4.26,4.26,0,0,1,288.58,78.25ZM284,40.64a4.27,4.27,0,0,0-.71.07l-1.09.21a3.69,3.69,0,0,0-2.91,4.33L285,74.51a3.69,3.69,0,0,0,4.32,2.92l1.09-.22h0a3.63,3.63,0,0,0,2.35-1.55,3.67,3.67,0,0,0,.56-2.77l-5.71-29.26A3.69,3.69,0,0,0,284,40.64Z"/><path d="M266.55,126.56l-.21,0a.74.74,0,0,1-.51-.93l19.72-66.72a.75.75,0,1,1,1.44.43L267.27,126A.76.76,0,0,1,266.55,126.56Z"/><circle cx="266.55" cy="125.81" r="1.64"/><path class="b18bb8f0-5bf7-4301-8792-a6eda5b967b9" d="M286.27,59.82a.75.75,0,0,1-.73-.6l-7.13-35.13a.75.75,0,1,1,1.47-.29L287,58.92a.74.74,0,0,1-.59.88A.39.39,0,0,1,286.27,59.82Z"/><path class="b18bb8f0-5bf7-4301-8792-a6eda5b967b9" d="M277.51,28.89a7.73,7.73,0,0,1,5-.93l-4-7.47Z"/><path class="b72e7df7-1123-4c2d-99e1-9311f12c6b1b" d="M293.67,42.47a10.71,10.71,0,0,0-12.78-8.09,10.74,10.74,0,0,0-7.62,6.56l-.93-.36a11.69,11.69,0,0,1,22.31,1.67Z"/><path class="b18bb8f0-5bf7-4301-8792-a6eda5b967b9" d="M293.77,41.92a.76.76,0,0,1-.73-.58,10.44,10.44,0,0,0-19.92-1.49.75.75,0,0,1-1.4-.55A11.94,11.94,0,0,1,294.5,41a.74.74,0,0,1-.56.89A.5.5,0,0,1,293.77,41.92Z"/><polygon class="b18bb8f0-5bf7-4301-8792-a6eda5b967b9" points="295.64 37.99 294.67 43.65 290.66 39.55 295.64 37.99"/><circle class="b72e7df7-1123-4c2d-99e1-9311f12c6b1b" cx="286.27" cy="59.07" r="2.53"/><path d="M286.27,62.1a3.09,3.09,0,0,1-1.36-.32,3,3,0,1,1,4.23-3.67,3,3,0,0,1-1.92,3.83A2.83,2.83,0,0,1,286.27,62.1Zm0-5.06a2,2,0,0,0-.64.1,2.09,2.09,0,0,0-1.18,1,2,2,0,0,0-.11,1.55h0a2,2,0,0,0,1,1.17,2,2,0,0,0,1.55.12,2.07,2.07,0,0,0,1.17-1,2,2,0,0,0,.11-1.55A2,2,0,0,0,286.27,57Z"/></svg>