<svg id="a5dc54b0-1db5-4ddc-ac37-8578595a118b" data-name="Layer 1" xmlns="http://www.w3.org/2000/svg" viewBox="0 0 344.72 181.84"><defs><style>.a4f521ee-d4da-49b8-8bba-8bc07e8da891{font-size:15px;fill:#1b1b1a;}.a254a724-5bba-467d-b69d-31e2b8f6c04a,.a4f521ee-d4da-49b8-8bba-8bc07e8da891,.f5968f3b-ee3e-4f7c-8510-ea757abbc128{font-family:CMUSerif-Italic, CMU Serif;font-style:italic;}.e9fe825a-97bc-4f34-88bd-7784cd9ff096,.f5968f3b-ee3e-4f7c-8510-ea757abbc128{font-size:17.05px;}.b0afdc57-7cf1-44f6-8430-777c4f1a8548,.e9fe825a-97bc-4f34-88bd-7784cd9ff096,.f5968f3b-ee3e-4f7c-8510-ea757abbc128{fill:#222221;}.e9fe825a-97bc-4f34-88bd-7784cd9ff096{font-family:CMUSerif-Roman, CMU Serif;}.acf67fa0-9c76-4acf-a81a-2bc44ac79867,.b165a5da-e87d-4a29-94f2-9cc847662571,.b45552f9-6a69-400c-88ff-580909274f22,.bdd94f1c-bd48-46c3-8c51-20f05dfb8629,.eed15a74-3462-4157-baac-16a048f98fe8,.f4e16160-b778-45af-9287-eb1337dabd2c,.fe1b38b8-63e5-4243-a034-aa7e4adbb27b{fill:none;}.acf67fa0-9c76-4acf-a81a-2bc44ac79867,.ae87f125-7e1f-4ea0-910c-c9f9984f6a13,.fe1b38b8-63e5-4243-a034-aa7e4adbb27b{stroke:#222221;}.acf67fa0-9c76-4acf-a81a-2bc44ac79867,.ae87f125-7e1f-4ea0-910c-c9f9984f6a13,.b45552f9-6a69-400c-88ff-580909274f22,.e35cb2e4-c1dd-4d3b-ae13-ef831990ab7f,.eed15a74-3462-4157-baac-16a048f98fe8,.fe1b38b8-63e5-4243-a034-aa7e4adbb27b{stroke-miterlimit:10;}.a79a2911-decb-4aeb-92be-8b964c3c2c5e,.acf67fa0-9c76-4acf-a81a-2bc44ac79867,.b45552f9-6a69-400c-88ff-580909274f22,.b579a439-d765-48bd-b113-50af78071065,.bae325b0-3bfa-4224-8cf2-c4b70dde328e,.fe1b38b8-63e5-4243-a034-aa7e4adbb27b{stroke-width:0.75px;}.fe1b38b8-63e5-4243-a034-aa7e4adbb27b{stroke-dasharray:1.97 0.99;}.a79a2911-decb-4aeb-92be-8b964c3c2c5e{fill:#f1f1f1;stroke:#cbcbcb;}.a79a2911-decb-4aeb-92be-8b964c3c2c5e,.b165a5da-e87d-4a29-94f2-9cc847662571,.b579a439-d765-48bd-b113-50af78071065,.bae325b0-3bfa-4224-8cf2-c4b70dde328e,.bdd94f1c-bd48-46c3-8c51-20f05dfb8629,.f4e16160-b778-45af-9287-eb1337dabd2c{stroke-linecap:round;stroke-linejoin:round;}.b579a439-d765-48bd-b113-50af78071065{fill:#ceddf3;}.b579a439-d765-48bd-b113-50af78071065,.f4e16160-b778-45af-9287-eb1337dabd2c{stroke:#4f87c6;}.bae325b0-3bfa-4224-8cf2-c4b70dde328e{fill:#d5a2a4;}.b165a5da-e87d-4a29-94f2-9cc847662571,.bae325b0-3bfa-4224-8cf2-c4b70dde328e{stroke:#9f3340;}.b45552f9-6a69-400c-88ff-580909274f22,.bdd94f1c-bd48-46c3-8c51-20f05dfb8629,.e35cb2e4-c1dd-4d3b-ae13-ef831990ab7f{stroke:#000;}.b165a5da-e87d-4a29-94f2-9cc847662571,.bdd94f1c-bd48-46c3-8c51-20f05dfb8629,.f4e16160-b778-45af-9287-eb1337dabd2c{stroke-width:1.5px;}.ae87f125-7e1f-4ea0-910c-c9f9984f6a13,.e35cb2e4-c1dd-4d3b-ae13-ef831990ab7f{fill:#fff;}.eed15a74-3462-4157-baac-16a048f98fe8{stroke:#fff;}.bde64ba3-559b-4a70-abff-897356c23d04{fill:#9f3340;}.a2b247f6-de03-423c-91d1-467316032b67{fill:#4f87c6;}</style></defs><text class="a4f521ee-d4da-49b8-8bba-8bc07e8da891" transform="translate(59.06 168.41)">(a)</text><text class="a4f521ee-d4da-49b8-8bba-8bc07e8da891" transform="translate(164.71 168.41)">(b)</text><text class="a4f521ee-d4da-49b8-8bba-8bc07e8da891" transform="translate(267.59 168.41)">(c)</text><text class="f5968f3b-ee3e-4f7c-8510-ea757abbc128" transform="translate(87.28 58.87)">m</text><text class="e9fe825a-97bc-4f34-88bd-7784cd9ff096" transform="translate(101.21 63.16) scale(0.58)">2</text><text class="e9fe825a-97bc-4f34-88bd-7784cd9ff096" transform="translate(106.18 57.49)">,<tspan class="a254a724-5bba-467d-b69d-31e2b8f6c04a" x="4.72" y="0">I</tspan></text><text class="e9fe825a-97bc-4f34-88bd-7784cd9ff096" transform="translate(117.46 63.16) scale(0.58)">2</text><text class="f5968f3b-ee3e-4f7c-8510-ea757abbc128" transform="translate(65.18 135.02)">m</text><text class="e9fe825a-97bc-4f34-88bd-7784cd9ff096" transform="translate(79.11 139.32) scale(0.58)">1</text><text class="f5968f3b-ee3e-4f7c-8510-ea757abbc128" transform="translate(38.22 83.78)">l</text><line class="acf67fa0-9c76-4acf-a81a-2bc44ac79867" x1="62.29" y1="57.47" x2="62.01" y2="58.43"/><line class="fe1b38b8-63e5-4243-a034-aa7e4adbb27b" x1="61.73" y1="59.37" x2="44.25" y2="118.53"/><line class="acf67fa0-9c76-4acf-a81a-2bc44ac79867" x1="44.11" y1="119" x2="43.83" y2="119.96"/><polygon points="43.05 116.8 43.64 120.54 46.17 117.72 43.05 116.8"/><polygon class="b0afdc57-7cf1-44f6-8430-777c4f1a8548" points="63.75 58.29 63.16 54.55 60.63 57.37 63.75 58.29"/><rect class="a79a2911-decb-4aeb-92be-8b964c3c2c5e" x="64.26" y="56.85" width="4.85" height="70.17" transform="translate(28.78 -15.13) rotate(16.46)"/><rect class="b579a439-d765-48bd-b113-50af78071065" x="52.06" y="106.36" width="9.36" height="38.44" rx="4.12" transform="translate(37.91 -10.93) rotate(16.46)"/><rect class="bae325b0-3bfa-4224-8cf2-c4b70dde328e" x="72.05" y="38.74" width="9.36" height="38.44" rx="4.12" transform="translate(-9.68 15.76) rotate(-11.04)"/><line class="acf67fa0-9c76-4acf-a81a-2bc44ac79867" x1="76.72" y1="57.98" x2="61.29" y2="53.33"/><line class="b45552f9-6a69-400c-88ff-580909274f22" x1="56.74" y1="125.58" x2="41.31" y2="120.93"/><text class="f5968f3b-ee3e-4f7c-8510-ea757abbc128" transform="translate(76.64 101.88)">I</text><text class="e9fe825a-97bc-4f34-88bd-7784cd9ff096" transform="translate(83.2 107.56) scale(0.58)">1</text><line class="bdd94f1c-bd48-46c3-8c51-20f05dfb8629" x1="56.74" y1="125.58" x2="76.72" y2="57.98"/><circle class="ae87f125-7e1f-4ea0-910c-c9f9984f6a13" cx="76.72" cy="57.96" r="2.56"/><circle cx="56.74" cy="125.58" r="1.67"/><text class="f5968f3b-ee3e-4f7c-8510-ea757abbc128" transform="translate(178.97 108.94)">u</text><text class="e9fe825a-97bc-4f34-88bd-7784cd9ff096" transform="translate(188.1 112.34) scale(0.58)">1</text><text class="f5968f3b-ee3e-4f7c-8510-ea757abbc128" transform="translate(156.75 46.54)">u</text><text class="e9fe825a-97bc-4f34-88bd-7784cd9ff096" transform="translate(165.88 49.95) scale(0.58)">2</text><path class="eed15a74-3462-4157-baac-16a048f98fe8" d="M171.72,40.31a11.19,11.19,0,0,1,21.35,1.6"/><path class="b165a5da-e87d-4a29-94f2-9cc847662571" d="M172.17,39.57a11.19,11.19,0,0,1,21.35,1.6"/><polygon class="bde64ba3-559b-4a70-abff-897356c23d04" points="195.39 37.99 194.42 43.65 190.41 39.55 195.39 37.99"/><rect class="b579a439-d765-48bd-b113-50af78071065" x="161.68" y="106.84" width="9.23" height="37.94" rx="4.06" transform="translate(42.46 -41.96) rotate(16.46)"/><rect class="bae325b0-3bfa-4224-8cf2-c4b70dde328e" x="181.41" y="40.1" width="9.23" height="37.94" rx="4.06" transform="translate(-7.87 36.71) rotate(-11.04)"/><line class="bdd94f1c-bd48-46c3-8c51-20f05dfb8629" x1="166.3" y1="125.81" x2="186.02" y2="59.09"/><circle class="e35cb2e4-c1dd-4d3b-ae13-ef831990ab7f" cx="186.02" cy="59.07" r="2.53"/><circle class="a2b247f6-de03-423c-91d1-467316032b67" cx="166.3" cy="125.81" r="1.64"/><line class="f4e16160-b778-45af-9287-eb1337dabd2c" x1="175.55" y1="94.42" x2="166.3" y2="125.81"/><path class="a2b247f6-de03-423c-91d1-467316032b67" d="M171.85,98.09a7.61,7.61,0,0,1,4.85,1.43q-.06-4.23-.14-8.46Z"/><text class="f5968f3b-ee3e-4f7c-8510-ea757abbc128" transform="translate(282.88 26.7)">u</text><text class="e9fe825a-97bc-4f34-88bd-7784cd9ff096" transform="translate(292.02 30.11) scale(0.58)">1</text><text class="f5968f3b-ee3e-4f7c-8510-ea757abbc128" transform="translate(257 46.54)">u</text><text class="e9fe825a-97bc-4f34-88bd-7784cd9ff096" transform="translate(266.13 49.95) scale(0.58)">2</text><path class="eed15a74-3462-4157-baac-16a048f98fe8" d="M272,40.31a11.19,11.19,0,0,1,21.35,1.6"/><path class="b165a5da-e87d-4a29-94f2-9cc847662571" d="M272.42,39.57a11.19,11.19,0,0,1,21.35,1.6"/><polygon class="bde64ba3-559b-4a70-abff-897356c23d04" points="295.64 37.99 294.67 43.65 290.66 39.55 295.64 37.99"/><rect class="b579a439-d765-48bd-b113-50af78071065" x="261.93" y="106.84" width="9.23" height="37.94" rx="4.06" transform="translate(46.57 -70.37) rotate(16.46)"/><rect class="bae325b0-3bfa-4224-8cf2-c4b70dde328e" x="281.66" y="40.1" width="9.23" height="37.94" rx="4.06" transform="translate(-6.01 55.91) rotate(-11.04)"/><line class="bdd94f1c-bd48-46c3-8c51-20f05dfb8629" x1="266.55" y1="125.81" x2="286.27" y2="59.09"/><circle cx="266.55" cy="125.81" r="1.64"/><line class="b165a5da-e87d-4a29-94f2-9cc847662571" x1="279.15" y1="23.94" x2="286.28" y2="59.07"/><path class="bde64ba3-559b-4a70-abff-897356c23d04" d="M277.51,28.89a7.73,7.73,0,0,1,5-.93l-4-7.47Z"/><circle class="e35cb2e4-c1dd-4d3b-ae13-ef831990ab7f" cx="286.27" cy="59.07" r="2.53"/></svg>