<svg id="e2669fac-9b94-49e3-9991-ce26df6946ac" data-name="Layer 1" xmlns="http://www.w3.org/2000/svg" xmlns:xlink="http://www.w3.org/1999/xlink" viewBox="0 0 344.72 136.8"><defs><style>.a5896aeb-c9f1-4005-b7c4-717573c3183c,.a8c63572-89e1-44a2-84d7-40f0dd61c786,.aaba85bf-6e46-4247-b3f1-1ae244e7e609,.ad5cb31d-e42b-4803-97e5-c20294efb4ed,.ae8c59f6-fdb0-419e-8c93-c7ceedd353ce,.e3f1ab07-0a90-4411-80f6-eeb22fe48fb2,.f7b92171-6024-4d3a-870b-83f4fb6f03b6,.fbbdd929-7c90-4378-aab4-15fc6010f9f8,.fc1c5e55-091c-458c-9aec-6816d640f747{fill:none;}.bac2c47f-a5d9-4c7d-be9c-caaeb691ae77{fill:#d5a2a4;}.a8c63572-89e1-44a2-84d7-40f0dd61c786,.bac2c47f-a5d9-4c7d-be9c-caaeb691ae77{stroke:#9f3340;}.a5896aeb-c9f1-4005-b7c4-717573c3183c,.a8c63572-89e1-44a2-84d7-40f0dd61c786,.aa00babe-abfe-429a-98ee-a3b925c93072,.ad5cb31d-e42b-4803-97e5-c20294efb4ed,.bac2c47f-a5d9-4c7d-be9c-caaeb691ae77,.fc1c5e55-091c-458c-9aec-6816d640f747{stroke-linecap:round;stroke-linejoin:round;}.aa00babe-abfe-429a-98ee-a3b925c93072,.b911f777-e141-455d-a635-095bf1d74a24,.bac2c47f-a5d9-4c7d-be9c-caaeb691ae77,.f7b92171-6024-4d3a-870b-83f4fb6f03b6{stroke-width:0.75px;}.aa00babe-abfe-429a-98ee-a3b925c93072{fill:#ceddf3;}.aa00babe-abfe-429a-98ee-a3b925c93072,.ad5cb31d-e42b-4803-97e5-c20294efb4ed{stroke:#4f87c6;}.a5896aeb-c9f1-4005-b7c4-717573c3183c,.ae8c59f6-fdb0-419e-8c93-c7ceedd353ce,.b911f777-e141-455d-a635-095bf1d74a24,.e52c8853-a2a9-43fa-9dd9-6da844156cb9,.f7b92171-6024-4d3a-870b-83f4fb6f03b6,.fbbdd929-7c90-4378-aab4-15fc6010f9f8,.fc1c5e55-091c-458c-9aec-6816d640f747{stroke:#222221;}.fc1c5e55-091c-458c-9aec-6816d640f747{stroke-width:1.5px;}.b911f777-e141-455d-a635-095bf1d74a24,.e52c8853-a2a9-43fa-9dd9-6da844156cb9{fill:#fff;}.aaba85bf-6e46-4247-b3f1-1ae244e7e609,.ae8c59f6-fdb0-419e-8c93-c7ceedd353ce,.b911f777-e141-455d-a635-095bf1d74a24,.e52c8853-a2a9-43fa-9dd9-6da844156cb9,.f7b92171-6024-4d3a-870b-83f4fb6f03b6,.fbbdd929-7c90-4378-aab4-15fc6010f9f8{stroke-miterlimit:10;}.bff33607-4b41-4a75-8752-6397339e1641{clip-path:url(#ae20a844-a630-4776-a2d9-272facf3764f);}.a4580c0f-48c2-4312-91b9-3d684a2d182e{clip-path:url(#a322a35d-31c3-40f4-bf76-8b2e4e2d363e);}.a2725448-1b8b-4f1f-8305-7f6c0d79c868,.a38a954b-bf7a-4975-a19f-fa9e78187473,.ae0d9da5-ee46-4edd-b39c-8cc676285e7f,.ae6f0677-ce8b-4a80-9399-42a0f35e94e7,.e799561f-693a-46e1-b938-efa8f84bfd15{font-size:15px;}.a38a954b-bf7a-4975-a19f-fa9e78187473,.ae0d9da5-ee46-4edd-b39c-8cc676285e7f,.ae2aa425-7536-4bd7-b4b2-aeb7571f1477,.ae6f0677-ce8b-4a80-9399-42a0f35e94e7,.e799561f-693a-46e1-b938-efa8f84bfd15{fill:#222221;}.a2725448-1b8b-4f1f-8305-7f6c0d79c868,.ae0d9da5-ee46-4edd-b39c-8cc676285e7f,.ae6f0677-ce8b-4a80-9399-42a0f35e94e7{font-family:CMUSerif-Italic, CMU Serif;font-style:italic;}.a38a954b-bf7a-4975-a19f-fa9e78187473,.e799561f-693a-46e1-b938-efa8f84bfd15{font-family:CMUSerif-Roman, CMU Serif;}.ae0d9da5-ee46-4edd-b39c-8cc676285e7f{letter-spacing:0em;}.a38a954b-bf7a-4975-a19f-fa9e78187473{letter-spacing:0.01em;}.a5896aeb-c9f1-4005-b7c4-717573c3183c{stroke-width:0.7px;}.ae8c59f6-fdb0-419e-8c93-c7ceedd353ce,.fbbdd929-7c90-4378-aab4-15fc6010f9f8{stroke-width:0.5px;}.fbbdd929-7c90-4378-aab4-15fc6010f9f8{stroke-dasharray:1.99 0.99;}.f7c8f7a6-19d0-42b0-af65-2c51bedac859{clip-path:url(#a2e56f45-9589-41b8-9175-f19d05b266f9);}.b646a547-669b-4f30-aa79-26cb6e550f44{clip-path:url(#a11cb827-55b9-49b4-bd8b-48f32ae8e195);}.aaba85bf-6e46-4247-b3f1-1ae244e7e609{stroke:#fff;}.aab90949-4cce-43ed-849b-d49777ea88d0{fill:#4f87c6;}.fca89316-9f00-42f8-baab-3ad5f0eb0b13{fill:#9f3340;}.a2725448-1b8b-4f1f-8305-7f6c0d79c868{fill:#1b1b1a;}</style><clipPath id="ae20a844-a630-4776-a2d9-272facf3764f"><rect class="e3f1ab07-0a90-4411-80f6-eeb22fe48fb2" x="43.69" y="83.19" width="6.65" height="32.64" transform="translate(146.53 52.49) rotate(90)"/></clipPath><clipPath id="a322a35d-31c3-40f4-bf76-8b2e4e2d363e"><rect class="e3f1ab07-0a90-4411-80f6-eeb22fe48fb2" x="121.48" y="83.19" width="6.65" height="32.64" transform="translate(224.31 -25.3) rotate(90)"/></clipPath><clipPath id="a2e56f45-9589-41b8-9175-f19d05b266f9"><rect class="e3f1ab07-0a90-4411-80f6-eeb22fe48fb2" x="221.33" y="77.62" width="6.65" height="32.64" transform="translate(318.59 -130.72) rotate(90)"/></clipPath><clipPath id="a11cb827-55b9-49b4-bd8b-48f32ae8e195"><rect class="e3f1ab07-0a90-4411-80f6-eeb22fe48fb2" x="299.12" y="77.62" width="6.65" height="32.64" transform="translate(396.38 -208.51) rotate(90)"/></clipPath></defs><circle class="bac2c47f-a5d9-4c7d-be9c-caaeb691ae77" cx="116.35" cy="38.42" r="8.45"/><circle class="aa00babe-abfe-429a-98ee-a3b925c93072" cx="68.43" cy="43.04" r="8.45"/><line class="fc1c5e55-091c-458c-9aec-6816d640f747" x1="68.43" y1="43.04" x2="46.56" y2="86.7"/><line class="fc1c5e55-091c-458c-9aec-6816d640f747" x1="68.43" y1="43.04" x2="116.3" y2="38.43"/><line class="fc1c5e55-091c-458c-9aec-6816d640f747" x1="124.45" y1="86.46" x2="116.44" y2="38.29"/><polygon class="b911f777-e141-455d-a635-095bf1d74a24" points="54.01 96.18 46.6 86.1 39.71 96.18 54.01 96.18"/><circle class="e52c8853-a2a9-43fa-9dd9-6da844156cb9" cx="46.56" cy="86.7" r="3.7"/><circle class="e52c8853-a2a9-43fa-9dd9-6da844156cb9" cx="68.43" cy="43.04" r="3.7"/><circle class="e52c8853-a2a9-43fa-9dd9-6da844156cb9" cx="116.35" cy="38.42" r="3.7"/><g class="bff33607-4b41-4a75-8752-6397339e1641"><line class="f7b92171-6024-4d3a-870b-83f4fb6f03b6" x1="53.9" y1="90.05" x2="71.03" y2="107.18"/><line class="f7b92171-6024-4d3a-870b-83f4fb6f03b6" x1="41.89" y1="86.43" x2="62.64" y2="107.18"/><line class="f7b92171-6024-4d3a-870b-83f4fb6f03b6" x1="35.69" y1="88.61" x2="54.25" y2="107.18"/><line class="f7b92171-6024-4d3a-870b-83f4fb6f03b6" x1="30.8" y1="92.11" x2="45.87" y2="107.18"/><line class="f7b92171-6024-4d3a-870b-83f4fb6f03b6" x1="28" y1="97.71" x2="37.48" y2="107.18"/></g><polyline class="f7b92171-6024-4d3a-870b-83f4fb6f03b6" points="63.34 96.18 54.01 96.18 39.71 96.18 30.7 96.18"/><polygon class="b911f777-e141-455d-a635-095bf1d74a24" points="131.8 96.18 124.39 86.1 117.5 96.18 131.8 96.18"/><circle class="e52c8853-a2a9-43fa-9dd9-6da844156cb9" cx="124.35" cy="86.7" r="3.7"/><g class="a4580c0f-48c2-4312-91b9-3d684a2d182e"><line class="f7b92171-6024-4d3a-870b-83f4fb6f03b6" x1="131.68" y1="90.05" x2="148.82" y2="107.18"/><line class="f7b92171-6024-4d3a-870b-83f4fb6f03b6" x1="119.68" y1="86.43" x2="140.43" y2="107.18"/><line class="f7b92171-6024-4d3a-870b-83f4fb6f03b6" x1="113.48" y1="88.61" x2="132.04" y2="107.18"/><line class="f7b92171-6024-4d3a-870b-83f4fb6f03b6" x1="108.58" y1="92.11" x2="123.65" y2="107.18"/><line class="f7b92171-6024-4d3a-870b-83f4fb6f03b6" x1="105.79" y1="97.71" x2="115.27" y2="107.18"/></g><polyline class="f7b92171-6024-4d3a-870b-83f4fb6f03b6" points="141.13 96.18 131.8 96.18 117.5 96.18 108.49 96.18"/><text class="ae6f0677-ce8b-4a80-9399-42a0f35e94e7" transform="translate(48.7 29.21)">m</text><text class="e799561f-693a-46e1-b938-efa8f84bfd15" transform="translate(60.96 32.21) scale(0.58)">1</text><text class="ae6f0677-ce8b-4a80-9399-42a0f35e94e7" transform="translate(211.67 60.4)">u</text><text class="e799561f-693a-46e1-b938-efa8f84bfd15" transform="translate(219.7 63.4) scale(0.58)">1</text><text class="ae6f0677-ce8b-4a80-9399-42a0f35e94e7" transform="translate(305.16 62.9)">u</text><text class="e799561f-693a-46e1-b938-efa8f84bfd15" transform="translate(313.2 65.9) scale(0.58)">2</text><text class="ae0d9da5-ee46-4edd-b39c-8cc676285e7f" transform="translate(118.46 26.19)">m</text><text class="a38a954b-bf7a-4975-a19f-fa9e78187473" transform="translate(130.78 29.18) scale(0.58)">2</text><text class="ae6f0677-ce8b-4a80-9399-42a0f35e94e7" transform="translate(28.96 46.61)">g</text><line class="a5896aeb-c9f1-4005-b7c4-717573c3183c" x1="24.11" y1="52.98" x2="24.39" y2="36.63"/><path class="ae2aa425-7536-4bd7-b4b2-aeb7571f1477" d="M26.41,48.75a6.71,6.71,0,0,1-2.26.34,6.82,6.82,0,0,1-2.2-.41q1.07,3.56,2.11,7.13Z"/><text class="ae6f0677-ce8b-4a80-9399-42a0f35e94e7" transform="translate(44.65 70)">l</text><text class="ae6f0677-ce8b-4a80-9399-42a0f35e94e7" transform="translate(80.32 83.92)">L</text><text class="ae6f0677-ce8b-4a80-9399-42a0f35e94e7" transform="translate(89.82 37.79)">l</text><text class="ae6f0677-ce8b-4a80-9399-42a0f35e94e7" transform="translate(124.89 70.3)">l</text><line class="ae8c59f6-fdb0-419e-8c93-c7ceedd353ce" x1="116.35" y1="86.7" x2="115.35" y2="86.7"/><line class="fbbdd929-7c90-4378-aab4-15fc6010f9f8" x1="114.36" y1="86.7" x2="55.19" y2="86.7"/><line class="ae8c59f6-fdb0-419e-8c93-c7ceedd353ce" x1="54.7" y1="86.7" x2="53.7" y2="86.7"/><polygon class="ae2aa425-7536-4bd7-b4b2-aeb7571f1477" points="116.17 85.31 118.89 86.7 116.17 88.09 116.17 85.31"/><polygon class="ae2aa425-7536-4bd7-b4b2-aeb7571f1477" points="54.51 85.31 51.79 86.7 54.51 88.09 54.51 85.31"/><circle class="bac2c47f-a5d9-4c7d-be9c-caaeb691ae77" cx="293.99" cy="32.85" r="8.45"/><circle class="aa00babe-abfe-429a-98ee-a3b925c93072" cx="246.06" cy="37.47" r="8.45"/><line class="fc1c5e55-091c-458c-9aec-6816d640f747" x1="246.06" y1="37.47" x2="224.2" y2="81.13"/><line class="fc1c5e55-091c-458c-9aec-6816d640f747" x1="246.06" y1="37.47" x2="293.94" y2="32.86"/><line class="fc1c5e55-091c-458c-9aec-6816d640f747" x1="302.09" y1="80.89" x2="294.08" y2="32.72"/><polygon class="b911f777-e141-455d-a635-095bf1d74a24" points="231.64 90.61 224.23 80.53 217.34 90.61 231.64 90.61"/><circle class="e52c8853-a2a9-43fa-9dd9-6da844156cb9" cx="224.2" cy="81.13" r="3.7"/><circle class="e52c8853-a2a9-43fa-9dd9-6da844156cb9" cx="246.06" cy="37.47" r="3.7"/><circle class="e52c8853-a2a9-43fa-9dd9-6da844156cb9" cx="293.99" cy="32.85" r="3.7"/><g class="f7c8f7a6-19d0-42b0-af65-2c51bedac859"><line class="f7b92171-6024-4d3a-870b-83f4fb6f03b6" x1="231.53" y1="84.48" x2="248.66" y2="101.61"/><line class="f7b92171-6024-4d3a-870b-83f4fb6f03b6" x1="219.53" y1="80.86" x2="240.28" y2="101.61"/><line class="f7b92171-6024-4d3a-870b-83f4fb6f03b6" x1="213.32" y1="83.04" x2="231.89" y2="101.61"/><line class="f7b92171-6024-4d3a-870b-83f4fb6f03b6" x1="208.43" y1="86.54" x2="223.5" y2="101.61"/><line class="f7b92171-6024-4d3a-870b-83f4fb6f03b6" x1="205.64" y1="92.13" x2="215.11" y2="101.61"/></g><polyline class="f7b92171-6024-4d3a-870b-83f4fb6f03b6" points="240.97 90.61 231.64 90.61 217.34 90.61 208.33 90.61"/><polygon class="b911f777-e141-455d-a635-095bf1d74a24" points="309.43 90.61 302.02 80.53 295.13 90.61 309.43 90.61"/><circle class="e52c8853-a2a9-43fa-9dd9-6da844156cb9" cx="301.99" cy="81.13" r="3.7"/><g class="b646a547-669b-4f30-aa79-26cb6e550f44"><line class="f7b92171-6024-4d3a-870b-83f4fb6f03b6" x1="309.32" y1="84.48" x2="326.45" y2="101.61"/><line class="f7b92171-6024-4d3a-870b-83f4fb6f03b6" x1="297.31" y1="80.86" x2="318.06" y2="101.61"/><line class="f7b92171-6024-4d3a-870b-83f4fb6f03b6" x1="291.11" y1="83.04" x2="309.68" y2="101.61"/><line class="f7b92171-6024-4d3a-870b-83f4fb6f03b6" x1="286.22" y1="86.54" x2="301.29" y2="101.61"/><line class="f7b92171-6024-4d3a-870b-83f4fb6f03b6" x1="283.43" y1="92.13" x2="292.9" y2="101.61"/></g><polyline class="f7b92171-6024-4d3a-870b-83f4fb6f03b6" points="318.76 90.61 309.43 90.61 295.13 90.61 286.12 90.61"/><path class="aaba85bf-6e46-4247-b3f1-1ae244e7e609" d="M217.34,73.37a9.85,9.85,0,0,1,18,5.49"/><path class="ad5cb31d-e42b-4803-97e5-c20294efb4ed" d="M217.87,72.82a9.85,9.85,0,0,1,18,5.5"/><polygon class="aab90949-4cce-43ed-849b-d49777ea88d0" points="238.1 75.94 236.18 80.61 233.53 76.32 238.1 75.94"/><path class="aaba85bf-6e46-4247-b3f1-1ae244e7e609" d="M290.55,74.63A9.84,9.84,0,0,1,309.33,76"/><path class="a8c63572-89e1-44a2-84d7-40f0dd61c786" d="M290.94,74a9.85,9.85,0,0,1,18.78,1.41"/><polygon class="fca89316-9f00-42f8-baab-3ad5f0eb0b13" points="311.36 72.59 310.52 77.56 306.98 73.96 311.36 72.59"/><text class="a2725448-1b8b-4f1f-8305-7f6c0d79c868" transform="translate(72.08 123.32)">(a)</text><text class="a2725448-1b8b-4f1f-8305-7f6c0d79c868" transform="translate(257.43 123.32)">(b)</text></svg>