<svg id="a8d07071-3e11-45ed-bbf6-006c27d65f92" data-name="Layer 1" xmlns="http://www.w3.org/2000/svg" xmlns:xlink="http://www.w3.org/1999/xlink" viewBox="0 0 344.72 136.8"><defs><style>.f52e4677-b06b-4187-b305-e772f72335bc{fill:none;}.a11edfc5-2124-433b-a436-e5f0e7b89d4d{fill:#d3a0a2;}.e029a35c-b7fa-4a12-9a36-48259f5059e0{fill:#9f3340;}.b3fa5460-733e-40d9-b612-7b1155a4b1c0{fill:#ceddf3;}.a08b69c8-d745-4e54-8636-52c0759a5453{fill:#4f87c6;}.bb9fa9ef-5193-457f-ad8b-65df3920bedd{fill:#222221;}.ed189914-6a4e-44a6-938e-f33315dd93b3{fill:#fff;}.a43c6fe1-c606-49e8-8c09-e5fb2a5915c0{clip-path:url(#aeac858e-58ec-43fb-bec4-4abef4049a32);}.f11e8fc9-f9bf-42da-acd9-9df0138fbe7e{clip-path:url(#e17da6c2-be36-4498-9ddd-eabb780449ee);}.fb1b705f-887f-4ae0-b76d-7ea539178e45{clip-path:url(#b577b54a-0f8d-4df8-a407-3745718ad938);}.aaaf0b45-c35e-40a9-94f6-a0cda90533d2{clip-path:url(#ffeeb6ef-0a42-41c9-a666-21024ba9549e);}.f36a6719-600b-4f9d-8e68-4358fc5ac805{fill:#1b1b1a;}</style><clipPath id="aeac858e-58ec-43fb-bec4-4abef4049a32"><rect class="f52e4677-b06b-4187-b305-e772f72335bc" x="43.69" y="83.19" width="6.65" height="32.64" transform="translate(146.53 52.49) rotate(90)"/></clipPath><clipPath id="e17da6c2-be36-4498-9ddd-eabb780449ee"><rect class="f52e4677-b06b-4187-b305-e772f72335bc" x="121.48" y="83.19" width="6.65" height="32.64" transform="translate(224.31 -25.3) rotate(90)"/></clipPath><clipPath id="b577b54a-0f8d-4df8-a407-3745718ad938"><rect class="f52e4677-b06b-4187-b305-e772f72335bc" x="221.33" y="77.62" width="6.65" height="32.64" transform="translate(318.59 -130.72) rotate(90)"/></clipPath><clipPath id="ffeeb6ef-0a42-41c9-a666-21024ba9549e"><rect class="f52e4677-b06b-4187-b305-e772f72335bc" x="299.12" y="77.62" width="6.65" height="32.64" transform="translate(396.38 -208.51) rotate(90)"/></clipPath></defs><circle class="a11edfc5-2124-433b-a436-e5f0e7b89d4d" cx="116.35" cy="38.42" r="8.45"/><path class="e029a35c-b7fa-4a12-9a36-48259f5059e0" d="M116.36,47.25a8.82,8.82,0,0,1-7.9-12.78,8.83,8.83,0,1,1,7.9,12.78Zm0-16.91a8.11,8.11,0,0,0-7.23,4.47,8,8,0,0,0-.44,6.16,8.07,8.07,0,1,0,7.67-10.63Z"/><circle class="b3fa5460-733e-40d9-b612-7b1155a4b1c0" cx="68.43" cy="43.04" r="8.45"/><path class="a08b69c8-d745-4e54-8636-52c0759a5453" d="M68.42,51.88a8.86,8.86,0,0,1-4-.94,8.84,8.84,0,1,1,6.74.48A8.91,8.91,0,0,1,68.42,51.88Zm0-16.92a8.08,8.08,0,1,0,7.67,5.53A8,8,0,0,0,68.42,35Z"/><path class="bb9fa9ef-5193-457f-ad8b-65df3920bedd" d="M46.56,87.45a.78.78,0,0,1-.33-.07.76.76,0,0,1-.34-1L67.76,42.71a.75.75,0,0,1,1-.34.76.76,0,0,1,.34,1L47.23,87A.74.74,0,0,1,46.56,87.45Z"/><path class="bb9fa9ef-5193-457f-ad8b-65df3920bedd" d="M68.43,43.79a.75.75,0,0,1-.75-.68.74.74,0,0,1,.68-.81l47.87-4.61a.75.75,0,1,1,.14,1.49L68.5,43.79Z"/><path class="bb9fa9ef-5193-457f-ad8b-65df3920bedd" d="M124.45,87.21a.75.75,0,0,1-.74-.63l-8-48.17a.75.75,0,1,1,1.48-.24l8,48.16a.76.76,0,0,1-.62.87Z"/><polygon class="ed189914-6a4e-44a6-938e-f33315dd93b3" points="54.01 96.18 46.6 86.1 39.71 96.18 54.01 96.18"/><path class="bb9fa9ef-5193-457f-ad8b-65df3920bedd" d="M54.75,96.56H39l7.59-11.11Zm-14.33-.75H53.27l-6.66-9.06Z"/><circle class="ed189914-6a4e-44a6-938e-f33315dd93b3" cx="46.56" cy="86.7" r="3.7"/><path class="bb9fa9ef-5193-457f-ad8b-65df3920bedd" d="M46.56,90.9a4.2,4.2,0,1,1,4.2-4.2A4.21,4.21,0,0,1,46.56,90.9Zm0-7.39a3.2,3.2,0,1,0,3.2,3.19A3.2,3.2,0,0,0,46.56,83.51Z"/><circle class="ed189914-6a4e-44a6-938e-f33315dd93b3" cx="68.43" cy="43.04" r="3.7"/><path class="bb9fa9ef-5193-457f-ad8b-65df3920bedd" d="M68.43,47.24a4.2,4.2,0,1,1,1.88-8,4.14,4.14,0,0,1,2.1,2.43A4.21,4.21,0,0,1,69.75,47,4.33,4.33,0,0,1,68.43,47.24Zm0-7.4a3.21,3.21,0,0,0-3,4.21h0a3.2,3.2,0,1,0,4.47-3.87A3.27,3.27,0,0,0,68.43,39.84Z"/><circle class="ed189914-6a4e-44a6-938e-f33315dd93b3" cx="116.35" cy="38.42" r="3.7"/><path class="bb9fa9ef-5193-457f-ad8b-65df3920bedd" d="M116.35,42.63a4.21,4.21,0,0,1-4-2.88h0a4.2,4.2,0,0,1,8-2.65,4.21,4.21,0,0,1-2.66,5.31A4.41,4.41,0,0,1,116.35,42.63Zm0-7.41a3.26,3.26,0,0,0-1,.17,3.19,3.19,0,0,0-2,4h0a3.2,3.2,0,0,0,4,2,3.2,3.2,0,0,0-1-6.24Z"/><g class="a43c6fe1-c606-49e8-8c09-e5fb2a5915c0"><rect class="bb9fa9ef-5193-457f-ad8b-65df3920bedd" x="62.09" y="86.5" width="0.75" height="24.23" transform="translate(-51.44 73.05) rotate(-45)"/><rect class="bb9fa9ef-5193-457f-ad8b-65df3920bedd" x="51.89" y="82.13" width="0.75" height="29.35" transform="translate(-53.14 65.31) rotate(-45)"/><rect class="bb9fa9ef-5193-457f-ad8b-65df3920bedd" x="44.6" y="84.77" width="0.75" height="26.26" transform="translate(-56.05 60.47) rotate(-45)"/><rect class="bb9fa9ef-5193-457f-ad8b-65df3920bedd" x="37.96" y="88.99" width="0.75" height="21.31" transform="translate(-59.23 56.29) rotate(-45)"/><rect class="bb9fa9ef-5193-457f-ad8b-65df3920bedd" x="32.37" y="95.74" width="0.75" height="13.4" transform="translate(-62.85 53.16) rotate(-45)"/></g><rect class="bb9fa9ef-5193-457f-ad8b-65df3920bedd" x="30.7" y="95.81" width="32.64" height="0.75"/><polygon class="ed189914-6a4e-44a6-938e-f33315dd93b3" points="131.8 96.18 124.39 86.1 117.5 96.18 131.8 96.18"/><path class="bb9fa9ef-5193-457f-ad8b-65df3920bedd" d="M132.54,96.56H116.79l7.59-11.11Zm-14.33-.75h12.85l-6.66-9.06Z"/><circle class="ed189914-6a4e-44a6-938e-f33315dd93b3" cx="124.35" cy="86.7" r="3.7"/><path class="bb9fa9ef-5193-457f-ad8b-65df3920bedd" d="M124.35,90.9a4.2,4.2,0,1,1,4.2-4.2A4.21,4.21,0,0,1,124.35,90.9Zm0-7.39a3.2,3.2,0,1,0,3.2,3.19A3.2,3.2,0,0,0,124.35,83.51Z"/><g class="f11e8fc9-f9bf-42da-acd9-9df0138fbe7e"><rect class="bb9fa9ef-5193-457f-ad8b-65df3920bedd" x="139.88" y="86.5" width="0.75" height="24.23" transform="translate(-28.65 128.06) rotate(-45)"/><rect class="bb9fa9ef-5193-457f-ad8b-65df3920bedd" x="129.68" y="82.13" width="0.75" height="29.35" transform="translate(-30.36 120.32) rotate(-45)"/><rect class="bb9fa9ef-5193-457f-ad8b-65df3920bedd" x="122.38" y="84.77" width="0.75" height="26.26" transform="translate(-33.27 115.48) rotate(-45)"/><rect class="bb9fa9ef-5193-457f-ad8b-65df3920bedd" x="115.74" y="88.99" width="0.75" height="21.31" transform="translate(-36.45 111.3) rotate(-45)"/><rect class="bb9fa9ef-5193-457f-ad8b-65df3920bedd" x="110.15" y="95.74" width="0.75" height="13.4" transform="translate(-40.06 108.16) rotate(-45)"/></g><rect class="bb9fa9ef-5193-457f-ad8b-65df3920bedd" x="108.49" y="95.81" width="32.64" height="0.75"/><path class="bb9fa9ef-5193-457f-ad8b-65df3920bedd" d="M50,24.89a2.64,2.64,0,0,1,.06-.26c0-.15.1-.35.18-.61a6.31,6.31,0,0,1,.24-.64,1.21,1.21,0,0,1,1.06-.79h0a1.17,1.17,0,0,1,.85.32,1.38,1.38,0,0,1,.42.86,2.57,2.57,0,0,1,2.14-1.18,1.9,1.9,0,0,1,1.06.3,1.34,1.34,0,0,1,.52,1,2.65,2.65,0,0,1,2.25-1.32,1.75,1.75,0,0,1,1.11.35,1.42,1.42,0,0,1,.47,1.21,11.82,11.82,0,0,1-.92,3.34,4.2,4.2,0,0,0-.26,1.13c0,.29.1.43.32.43.56,0,1-.62,1.4-1.88a.56.56,0,0,1,.08-.22.29.29,0,0,1,.17,0c.15,0,.22,0,.22.14a1.55,1.55,0,0,1-.06.28,3.35,3.35,0,0,1-.2.58,4.32,4.32,0,0,1-.36.67,2,2,0,0,1-.55.56,1.29,1.29,0,0,1-.73.23A1,1,0,0,1,58.6,29a1.22,1.22,0,0,1-.31-.85,3,3,0,0,1,.24-1,13.2,13.2,0,0,0,.87-3.32q0-1-.69-1c-.78,0-1.48.54-2.11,1.61a4.74,4.74,0,0,0-.37,1.08c0,.11-.07.28-.13.49s-.09.38-.12.49L55.39,29a.54.54,0,0,1-.54.39.42.42,0,0,1-.33-.12.37.37,0,0,1-.11-.27.76.76,0,0,1,.05-.21l1-3.9a5.63,5.63,0,0,0,.13-1c0-.65-.23-1-.68-1-.77,0-1.47.54-2.09,1.62a4.56,4.56,0,0,0-.37,1.08c0,.11-.07.27-.12.49l-.13.49L51.6,29a.57.57,0,0,1-.57.38.42.42,0,0,1-.33-.12.33.33,0,0,1-.11-.27.76.76,0,0,1,0-.21l1.13-4.5a3.12,3.12,0,0,0,.1-.76q0-.6-.39-.6t-.57.45a6.3,6.3,0,0,0-.45,1.33,1,1,0,0,1-.11.3s-.08.05-.18.05S50,25,50,24.89Z"/><path class="bb9fa9ef-5193-457f-ad8b-65df3920bedd" d="M61.69,27.22v-.28a2.12,2.12,0,0,0,1.61-.56c.09,0,.15,0,.16,0a.36.36,0,0,1,0,.19v4.9c0,.18,0,.29.13.34a1.65,1.65,0,0,0,.71.09h.29v.27q-.3,0-1.41,0c-.74,0-1.22,0-1.42,0v-.27h.28a1.75,1.75,0,0,0,.68-.08.39.39,0,0,0,.14-.35V27A2.82,2.82,0,0,1,61.69,27.22Z"/><path class="bb9fa9ef-5193-457f-ad8b-65df3920bedd" d="M212.91,56.08a1.73,1.73,0,0,1,.06-.27,3.72,3.72,0,0,1,.22-.57,4,4,0,0,1,.36-.68,1.8,1.8,0,0,1,.55-.55,1.25,1.25,0,0,1,.73-.24,1.09,1.09,0,0,1,.82.33A1.2,1.2,0,0,1,216,55a2.4,2.4,0,0,1-.19.81,11.48,11.48,0,0,0-.88,3.29c0,.77.27,1.15.81,1.15h0a1.66,1.66,0,0,0,1.38-.87,2.78,2.78,0,0,0,.21-.5l1.1-4.38c.08-.37.28-.55.58-.55a.42.42,0,0,1,.32.12.39.39,0,0,1,.1.27.68.68,0,0,1,0,.21l-1.09,4.32a3.79,3.79,0,0,0-.1.77c0,.41.13.61.38.61h0c.37,0,.71-.59,1-1.78a.89.89,0,0,1,.11-.3.26.26,0,0,1,.18,0c.15,0,.23,0,.23.15a2.64,2.64,0,0,1-.06.26c0,.16-.09.35-.16.59a5.8,5.8,0,0,1-.24.62,1.22,1.22,0,0,1-1.09.84,1.18,1.18,0,0,1-1.2-.89,2.12,2.12,0,0,1-1.67.89,1.77,1.77,0,0,1-1.19-.42,1.64,1.64,0,0,1-.49-1.32,10.21,10.21,0,0,1,.78-2.94,5.14,5.14,0,0,0,.36-1.35c0-.29-.11-.44-.33-.44-.6,0-1.06.63-1.39,1.89a.46.46,0,0,1-.09.21.36.36,0,0,1-.18,0C213,56.23,212.91,56.18,212.91,56.08Z"/><path class="bb9fa9ef-5193-457f-ad8b-65df3920bedd" d="M220.44,58.41v-.28a2.11,2.11,0,0,0,1.6-.56c.1,0,.15,0,.17,0a.56.56,0,0,1,0,.19v4.9a.39.39,0,0,0,.13.34,1.73,1.73,0,0,0,.72.08h.29v.28c-.21,0-.68,0-1.42,0s-1.21,0-1.42,0v-.28h.28a1.62,1.62,0,0,0,.69-.08.38.38,0,0,0,.13-.34V58.17A2.63,2.63,0,0,1,220.44,58.41Z"/><path class="bb9fa9ef-5193-457f-ad8b-65df3920bedd" d="M306.41,58.58s0-.12,0-.27a5.2,5.2,0,0,1,.22-.57,6.23,6.23,0,0,1,.36-.68,1.8,1.8,0,0,1,.55-.55,1.27,1.27,0,0,1,.73-.24,1.12,1.12,0,0,1,.83.33,1.26,1.26,0,0,1,.32.89,2.47,2.47,0,0,1-.2.81,11.7,11.7,0,0,0-.87,3.29c0,.77.27,1.15.8,1.15h0a1.66,1.66,0,0,0,1.38-.87,1.83,1.83,0,0,0,.21-.5L311.9,57c.09-.37.28-.55.58-.55a.4.4,0,0,1,.43.39.76.76,0,0,1-.05.21l-1.08,4.32a3.19,3.19,0,0,0-.1.77c0,.41.12.61.38.61h0c.37,0,.71-.59,1-1.78a1,1,0,0,1,.1-.3.28.28,0,0,1,.18,0c.15,0,.23,0,.23.15s0,.11-.05.26-.09.36-.17.59a4.31,4.31,0,0,1-.23.62,1.23,1.23,0,0,1-1.1.84,1.18,1.18,0,0,1-1.2-.89,2.11,2.11,0,0,1-1.66.89,1.79,1.79,0,0,1-1.2-.42,1.67,1.67,0,0,1-.49-1.32,10,10,0,0,1,.79-2.94,5.14,5.14,0,0,0,.36-1.35c0-.29-.11-.44-.33-.44-.61,0-1.07.63-1.4,1.89a.46.46,0,0,1-.09.21.34.34,0,0,1-.18,0C306.48,58.73,306.41,58.68,306.41,58.58Z"/><path class="bb9fa9ef-5193-457f-ad8b-65df3920bedd" d="M313.63,65.9a.78.78,0,0,1,0-.21.3.3,0,0,1,.08-.12l1.66-1.87a3,3,0,0,0,.92-1.94,1.69,1.69,0,0,0-.3-1,1,1,0,0,0-.87-.41,1.13,1.13,0,0,0-.7.23,1.27,1.27,0,0,0-.47.65h.11a.39.39,0,0,1,.33.14.45.45,0,0,1,.12.32.41.41,0,0,1-.15.35.44.44,0,0,1-.29.11H314a.44.44,0,0,1-.2-.13.5.5,0,0,1-.12-.35,1.53,1.53,0,0,1,.46-1.09,1.55,1.55,0,0,1,1.16-.49,1.88,1.88,0,0,1,1.32.48,1.56,1.56,0,0,1,.52,1.21,1.64,1.64,0,0,1-.08.5,2,2,0,0,1-.18.42,2.51,2.51,0,0,1-.38.48l-.51.51-.73.65-.92.9h1.57a2.09,2.09,0,0,0,.82-.07,2.55,2.55,0,0,0,.19-.77h.22l-.24,1.52Z"/><path class="bb9fa9ef-5193-457f-ad8b-65df3920bedd" d="M119.71,21.86a2.64,2.64,0,0,1,.06-.26q.06-.23.18-.6a6.57,6.57,0,0,1,.24-.65,1.21,1.21,0,0,1,1.06-.79h0a1.23,1.23,0,0,1,.85.32,1.37,1.37,0,0,1,.41.87,2.59,2.59,0,0,1,2.15-1.19,1.78,1.78,0,0,1,1,.31,1.31,1.31,0,0,1,.53,1,2.65,2.65,0,0,1,2.25-1.32,1.75,1.75,0,0,1,1.11.35,1.42,1.42,0,0,1,.46,1.21,11.69,11.69,0,0,1-.91,3.34,4.34,4.34,0,0,0-.27,1.13c0,.29.11.43.33.43.56,0,1-.62,1.4-1.88,0-.12,0-.19.08-.21s.08,0,.17,0,.22.05.22.14a1.55,1.55,0,0,1-.06.28,4.85,4.85,0,0,1-.21.58,4.32,4.32,0,0,1-.36.67,2.05,2.05,0,0,1-.54.56,1.24,1.24,0,0,1-.73.23,1,1,0,0,1-.83-.34,1.22,1.22,0,0,1-.31-.85,3,3,0,0,1,.24-1,13.1,13.1,0,0,0,.87-3.32q0-1-.69-1c-.78,0-1.48.54-2.11,1.62a4.5,4.5,0,0,0-.38,1.07c0,.11-.06.28-.12.49s-.09.39-.12.49l-.6,2.4a.54.54,0,0,1-.54.39.44.44,0,0,1-.32-.11.4.4,0,0,1-.11-.27.82.82,0,0,1,0-.22l1-3.9a4.86,4.86,0,0,0,.14-1q0-1-.69-1c-.77,0-1.46.54-2.09,1.62a4.67,4.67,0,0,0-.36,1.08c0,.11-.07.28-.13.49s-.09.38-.12.5L121.36,26a.58.58,0,0,1-.57.38.5.5,0,0,1-.34-.11.39.39,0,0,1-.1-.27.55.55,0,0,1,.05-.22l1.13-4.5a3.7,3.7,0,0,0,.1-.76q0-.6-.39-.6t-.57.45a6.22,6.22,0,0,0-.46,1.33.82.82,0,0,1-.1.3.26.26,0,0,1-.18.05C119.78,22,119.71,22,119.71,21.86Z"/><path class="bb9fa9ef-5193-457f-ad8b-65df3920bedd" d="M131.21,29.18a.84.84,0,0,1,0-.21.23.23,0,0,1,.08-.11L133,27a3,3,0,0,0,.92-1.94,1.65,1.65,0,0,0-.3-1,1,1,0,0,0-.87-.42,1.2,1.2,0,0,0-.7.23,1.31,1.31,0,0,0-.47.65h.11a.42.42,0,0,1,.33.14.47.47,0,0,1,.12.32.4.4,0,0,1-.15.35.46.46,0,0,1-.29.12l-.14,0a.37.37,0,0,1-.2-.13.48.48,0,0,1-.12-.35,1.61,1.61,0,0,1,1.62-1.57,1.87,1.87,0,0,1,1.32.47,1.65,1.65,0,0,1,.44,1.71,2.41,2.41,0,0,1-.18.43,2.87,2.87,0,0,1-.38.47l-.51.51c-.15.14-.39.36-.73.65l-.92.9h1.57a2.51,2.51,0,0,0,.82-.06,2.76,2.76,0,0,0,.19-.78h.22l-.24,1.52Z"/><path class="bb9fa9ef-5193-457f-ad8b-65df3920bedd" d="M29.76,48.82a.75.75,0,0,1,.73-.79.49.49,0,0,1,.4.14.48.48,0,0,1,.13.33.72.72,0,0,1-.14.4.76.76,0,0,1-.35.29,2.83,2.83,0,0,0,1.06.17A1.83,1.83,0,0,0,33,48.65a2.73,2.73,0,0,0,.43-.66,6.26,6.26,0,0,0,.26-.92L34,45.82a2.28,2.28,0,0,1-1.59.79A1.59,1.59,0,0,1,31.11,46a2.64,2.64,0,0,1-.5-1.63,4.73,4.73,0,0,1,1.07-3A3,3,0,0,1,34,40a1.35,1.35,0,0,1,1.26.86.62.62,0,0,1,.23-.42.61.61,0,0,1,.36-.14.35.35,0,0,1,.4.39,1.48,1.48,0,0,1-.06.32l-1.63,6.57a2.71,2.71,0,0,1-1,1.51,3.16,3.16,0,0,1-2,.62Q29.76,49.69,29.76,48.82ZM31.63,45a1.37,1.37,0,0,0,0,.28,2.4,2.4,0,0,0,.09.41.78.78,0,0,0,.25.44.63.63,0,0,0,.47.17,1.71,1.71,0,0,0,1.16-.6,2.5,2.5,0,0,0,.7-1L35,41.9l.05-.2a1.3,1.3,0,0,0,0-.28,3.32,3.32,0,0,0-.13-.45,1.06,1.06,0,0,0-.33-.46.8.8,0,0,0-.54-.2,1.37,1.37,0,0,0-.88.43,3.28,3.28,0,0,0-.75,1.06,10.71,10.71,0,0,0-.5,1.6A6.88,6.88,0,0,0,31.63,45Z"/><path class="bb9fa9ef-5193-457f-ad8b-65df3920bedd" d="M24.11,53.33h0a.35.35,0,0,1-.34-.36L24,36.62a.38.38,0,0,1,.35-.34.34.34,0,0,1,.34.35L24.46,53A.35.35,0,0,1,24.11,53.33Z"/><path class="bb9fa9ef-5193-457f-ad8b-65df3920bedd" d="M26.41,48.75a6.71,6.71,0,0,1-2.26.34,6.82,6.82,0,0,1-2.2-.41q1.07,3.56,2.11,7.13Z"/><path class="bb9fa9ef-5193-457f-ad8b-65df3920bedd" d="M46.07,68.82a3.12,3.12,0,0,1,.08-.59L48,60.73l0-.12a.66.66,0,0,0,0-.13.29.29,0,0,0,0-.14.34.34,0,0,0-.2-.08,2.32,2.32,0,0,0-.52,0c-.24,0-.36,0-.37-.17a.32.32,0,0,1,.06-.2.26.26,0,0,1,.11-.08l.18,0,1.48-.12a.81.81,0,0,1,.25,0q.21,0,.21.18a1.68,1.68,0,0,1,0,.2l-2.14,8.56a3.58,3.58,0,0,0-.1.7c0,.41.13.61.39.61h0q.56,0,1-1.68l.1-.38s.1-.07.22-.07.23.05.23.14a2.82,2.82,0,0,1-.06.29c0,.17-.1.38-.17.63a5.07,5.07,0,0,1-.24.62,1.25,1.25,0,0,1-1.07.78,1.21,1.21,0,0,1-.91-.38A1.37,1.37,0,0,1,46.07,68.82Z"/><path class="bb9fa9ef-5193-457f-ad8b-65df3920bedd" d="M81.25,83.73q0-.2.09-.24a.85.85,0,0,1,.32,0,2.47,2.47,0,0,0,.93-.11.75.75,0,0,0,.3-.52l2-8.14A1.55,1.55,0,0,0,85,74.4c0-.11-.07-.19-.21-.21a3.3,3.3,0,0,0-.66,0h-.23a.21.21,0,0,1-.12,0,.17.17,0,0,1,0-.13.25.25,0,0,1,.29-.29l.91,0,.92,0,1,0,1,0c.15,0,.23.06.23.19s0,.21-.09.24a.85.85,0,0,1-.33,0h-.15a2.72,2.72,0,0,0-1.1.13.79.79,0,0,0-.34.54l-2,8.16a1.2,1.2,0,0,1,0,.14.63.63,0,0,0,0,.19.2.2,0,0,0,0,.09s0,0,.12,0l.33,0h1.21a3.36,3.36,0,0,0,1.22-.21,3.21,3.21,0,0,0,.87-.48A2.71,2.71,0,0,0,88.4,82a6.76,6.76,0,0,0,.43-.79l.32-.84a1.43,1.43,0,0,1,.12-.28s.09,0,.18,0,.22.06.22.17l0,.09a.62.62,0,0,0,0,.11l-1.14,3.23c0,.13-.09.21-.13.23a.65.65,0,0,1-.3,0H81.42a.21.21,0,0,1-.12,0A.16.16,0,0,1,81.25,83.73Z"/><path class="bb9fa9ef-5193-457f-ad8b-65df3920bedd" d="M91.24,36.61a2.49,2.49,0,0,1,.09-.58l1.88-7.51,0-.12a.53.53,0,0,0,0-.13.23.23,0,0,0,0-.13.41.41,0,0,0-.2-.09,3.36,3.36,0,0,0-.52,0c-.24,0-.36-.06-.36-.17a.28.28,0,0,1,0-.2.27.27,0,0,1,.11-.09l.18,0L94,27.42a.74.74,0,0,1,.24,0c.14,0,.21.05.21.17a.68.68,0,0,1,0,.2l-2.14,8.57a3.48,3.48,0,0,0-.1.69c0,.41.13.61.39.61h0c.37,0,.68-.56,1-1.68l.1-.37a.25.25,0,0,1,.22-.08c.16,0,.23,0,.23.15s0,.11-.06.28-.1.38-.17.63a4.5,4.5,0,0,1-.24.62,1.21,1.21,0,0,1-1.07.78,1.19,1.19,0,0,1-.91-.38A1.37,1.37,0,0,1,91.24,36.61Z"/><path class="bb9fa9ef-5193-457f-ad8b-65df3920bedd" d="M126.31,69.12a2.57,2.57,0,0,1,.09-.59l1.89-7.5v-.12a.66.66,0,0,0,0-.13.26.26,0,0,0,0-.14.34.34,0,0,0-.2-.08,2.26,2.26,0,0,0-.52,0c-.24,0-.36-.06-.36-.17a.37.37,0,0,1,0-.2.21.21,0,0,1,.12-.08l.17,0,1.49-.12a.78.78,0,0,1,.24,0q.21,0,.21.18a.63.63,0,0,1,0,.19l-2.14,8.57a3.47,3.47,0,0,0-.1.7c0,.4.13.61.39.61h0c.37,0,.69-.56.95-1.68l.1-.38s.11-.07.22-.07.24,0,.23.14a2.82,2.82,0,0,1-.06.29c0,.17-.1.38-.17.63a4.31,4.31,0,0,1-.24.61,1.23,1.23,0,0,1-1.07.79,1.2,1.2,0,0,1-.91-.39A1.33,1.33,0,0,1,126.31,69.12Z"/><rect class="bb9fa9ef-5193-457f-ad8b-65df3920bedd" x="115.35" y="86.45" width="1" height="0.5"/><path class="bb9fa9ef-5193-457f-ad8b-65df3920bedd" d="M114.36,87h-2v-.5h2Zm-3,0h-2v-.5h2Zm-3,0h-2v-.5h2Zm-3,0h-2v-.5h2Zm-3,0h-2v-.5h2Zm-3,0h-2v-.5h2Zm-3,0h-2v-.5h2Zm-3,0h-2v-.5h2Zm-3,0h-2v-.5h2Zm-3,0h-2v-.5h2Zm-3,0h-2v-.5h2Zm-3,0h-2v-.5h2Zm-3,0h-2v-.5h2Zm-3,0h-2v-.5h2Zm-3,0h-2v-.5h2Zm-3,0h-2v-.5h2Zm-3,0h-2v-.5h2Zm-3,0h-2v-.5h2Zm-3,0h-2v-.5h2Zm-3,0h-2v-.5h2Z"/><rect class="bb9fa9ef-5193-457f-ad8b-65df3920bedd" x="53.7" y="86.45" width="1" height="0.5"/><polygon class="bb9fa9ef-5193-457f-ad8b-65df3920bedd" points="116.17 85.31 118.89 86.7 116.17 88.09 116.17 85.31"/><polygon class="bb9fa9ef-5193-457f-ad8b-65df3920bedd" points="54.51 85.31 51.79 86.7 54.51 88.09 54.51 85.31"/><circle class="a11edfc5-2124-433b-a436-e5f0e7b89d4d" cx="293.99" cy="32.85" r="8.45"/><path class="e029a35c-b7fa-4a12-9a36-48259f5059e0" d="M294,41.69a8.86,8.86,0,0,1-4-.94,8.84,8.84,0,1,1,6.74.48A9,9,0,0,1,294,41.69Zm0-16.92a8.08,8.08,0,1,0,7.67,5.53A8,8,0,0,0,294,24.77Z"/><circle class="b3fa5460-733e-40d9-b612-7b1155a4b1c0" cx="246.06" cy="37.47" r="8.45"/><path class="a08b69c8-d745-4e54-8636-52c0759a5453" d="M246.07,46.3a8.82,8.82,0,1,1,2.78-.45A9,9,0,0,1,246.07,46.3Zm0-16.91a8.12,8.12,0,0,0-7.23,4.46A8,8,0,0,0,238.4,40a8.07,8.07,0,1,0,7.67-10.63Z"/><path class="bb9fa9ef-5193-457f-ad8b-65df3920bedd" d="M224.2,81.88a.68.68,0,0,1-.34-.08.74.74,0,0,1-.33-1l21.86-43.66a.75.75,0,1,1,1.34.67L224.87,81.47A.75.75,0,0,1,224.2,81.88Z"/><path class="bb9fa9ef-5193-457f-ad8b-65df3920bedd" d="M246.06,38.22a.75.75,0,0,1-.07-1.49l47.87-4.61a.75.75,0,1,1,.15,1.49l-47.88,4.61Z"/><path class="bb9fa9ef-5193-457f-ad8b-65df3920bedd" d="M302.08,81.64a.74.74,0,0,1-.73-.63l-8-48.17a.75.75,0,0,1,1.48-.25l8,48.17a.76.76,0,0,1-.62.87Z"/><polygon class="ed189914-6a4e-44a6-938e-f33315dd93b3" points="231.64 90.61 224.23 80.53 217.34 90.61 231.64 90.61"/><path class="bb9fa9ef-5193-457f-ad8b-65df3920bedd" d="M232.38,91H216.63l7.59-11.1Zm-14.33-.75H230.9l-6.66-9Z"/><circle class="ed189914-6a4e-44a6-938e-f33315dd93b3" cx="224.2" cy="81.13" r="3.7"/><path class="bb9fa9ef-5193-457f-ad8b-65df3920bedd" d="M224.2,85.33a4.2,4.2,0,1,1,4.2-4.2A4.2,4.2,0,0,1,224.2,85.33Zm0-7.39a3.2,3.2,0,1,0,3.2,3.19A3.19,3.19,0,0,0,224.2,77.94Z"/><circle class="ed189914-6a4e-44a6-938e-f33315dd93b3" cx="246.06" cy="37.47" r="3.7"/><path class="bb9fa9ef-5193-457f-ad8b-65df3920bedd" d="M246.06,41.67a4.25,4.25,0,0,1-1.88-.44,4.21,4.21,0,0,1-1.87-5.64,4.2,4.2,0,0,1,5.63-1.87,4.2,4.2,0,0,1-.55,7.74A4.4,4.4,0,0,1,246.06,41.67Zm0-7.4a3.26,3.26,0,0,0-1,.17,3.19,3.19,0,0,0-2,4h0a3.15,3.15,0,0,0,1.6,1.85,3.2,3.2,0,1,0,2.86-5.72A3.22,3.22,0,0,0,246.07,34.27Z"/><circle class="ed189914-6a4e-44a6-938e-f33315dd93b3" cx="293.99" cy="32.85" r="3.7"/><path class="bb9fa9ef-5193-457f-ad8b-65df3920bedd" d="M294,37.05a4.21,4.21,0,0,1-4-2.87h0a4.21,4.21,0,0,1,.23-3.21,4.17,4.17,0,0,1,2.43-2.1,4.21,4.21,0,0,1,3.21.23,4.14,4.14,0,0,1,2.1,2.43,4.21,4.21,0,0,1-2.66,5.31A4.33,4.33,0,0,1,294,37.05Zm-3-3.19a3.2,3.2,0,1,0,2-4,3.21,3.21,0,0,0-2,4Z"/><g class="fb1b705f-887f-4ae0-b76d-7ea539178e45"><rect class="bb9fa9ef-5193-457f-ad8b-65df3920bedd" x="239.72" y="80.93" width="0.75" height="24.23" transform="translate(4.53 197.03) rotate(-45)"/><rect class="bb9fa9ef-5193-457f-ad8b-65df3920bedd" x="229.53" y="76.56" width="0.75" height="29.35" transform="translate(2.83 189.29) rotate(-45)"/><rect class="bb9fa9ef-5193-457f-ad8b-65df3920bedd" x="222.23" y="79.2" width="0.75" height="26.26" transform="translate(-0.08 184.45) rotate(-45)"/><rect class="bb9fa9ef-5193-457f-ad8b-65df3920bedd" x="215.59" y="83.42" width="0.75" height="21.31" transform="translate(-3.27 180.26) rotate(-45)"/><rect class="bb9fa9ef-5193-457f-ad8b-65df3920bedd" x="210" y="90.17" width="0.75" height="13.4" transform="translate(-6.88 177.14) rotate(-45)"/></g><rect class="bb9fa9ef-5193-457f-ad8b-65df3920bedd" x="208.33" y="90.23" width="32.64" height="0.75"/><polygon class="ed189914-6a4e-44a6-938e-f33315dd93b3" points="309.43 90.61 302.02 80.53 295.13 90.61 309.43 90.61"/><path class="bb9fa9ef-5193-457f-ad8b-65df3920bedd" d="M310.17,91H294.42L302,79.88Zm-14.33-.75h12.85l-6.66-9Z"/><circle class="ed189914-6a4e-44a6-938e-f33315dd93b3" cx="301.99" cy="81.13" r="3.7"/><path class="bb9fa9ef-5193-457f-ad8b-65df3920bedd" d="M302,85.33a4.2,4.2,0,1,1,4.19-4.2A4.2,4.2,0,0,1,302,85.33Zm0-7.39a3.2,3.2,0,1,0,3.19,3.19A3.19,3.19,0,0,0,302,77.94Z"/><g class="aaaf0b45-c35e-40a9-94f6-a0cda90533d2"><rect class="bb9fa9ef-5193-457f-ad8b-65df3920bedd" x="317.51" y="80.93" width="0.75" height="24.23" transform="translate(27.32 252.03) rotate(-45)"/><rect class="bb9fa9ef-5193-457f-ad8b-65df3920bedd" x="307.31" y="76.56" width="0.75" height="29.35" transform="translate(25.61 244.29) rotate(-45)"/><rect class="bb9fa9ef-5193-457f-ad8b-65df3920bedd" x="300.02" y="79.2" width="0.75" height="26.26" transform="translate(22.7 239.45) rotate(-45)"/><rect class="bb9fa9ef-5193-457f-ad8b-65df3920bedd" x="293.38" y="83.42" width="0.75" height="21.31" transform="translate(19.52 235.27) rotate(-45)"/><rect class="bb9fa9ef-5193-457f-ad8b-65df3920bedd" x="287.79" y="90.17" width="0.75" height="13.4" transform="translate(15.91 232.14) rotate(-45)"/></g><rect class="bb9fa9ef-5193-457f-ad8b-65df3920bedd" x="286.12" y="90.23" width="32.64" height="0.75"/><path class="ed189914-6a4e-44a6-938e-f33315dd93b3" d="M235.86,78.86h-1a9.35,9.35,0,0,0-17.1-5.21l-.83-.56a10.35,10.35,0,0,1,18.93,5.77Z"/><path class="a08b69c8-d745-4e54-8636-52c0759a5453" d="M235.89,78.82a.5.5,0,0,1-.5-.5,9.35,9.35,0,0,0-17.11-5.22.49.49,0,0,1-.69.13.5.5,0,0,1-.14-.69,10.35,10.35,0,0,1,18.94,5.78A.51.51,0,0,1,235.89,78.82Z"/><polygon class="a08b69c8-d745-4e54-8636-52c0759a5453" points="238.1 75.94 236.18 80.61 233.53 76.32 238.1 75.94"/><path class="ed189914-6a4e-44a6-938e-f33315dd93b3" d="M308.84,76.15A9.35,9.35,0,0,0,291,74.81l-.93-.36a10.35,10.35,0,0,1,19.74,1.48Z"/><path class="e029a35c-b7fa-4a12-9a36-48259f5059e0" d="M309.72,75.89a.49.49,0,0,1-.48-.39,9.34,9.34,0,0,0-17.83-1.33.51.51,0,0,1-.65.28.49.49,0,0,1-.28-.65,10.34,10.34,0,0,1,19.73,1.48.5.5,0,0,1-.38.6Z"/><polygon class="e029a35c-b7fa-4a12-9a36-48259f5059e0" points="311.36 72.59 310.52 77.56 306.98 73.96 311.36 72.59"/><path class="f36a6719-600b-4f9d-8e68-4358fc5ac805" d="M74.36,122.61a14,14,0,0,1,.49-3.41,13.83,13.83,0,0,1,1.62-3.78,11.2,11.2,0,0,1,1.35-1.79,10.63,10.63,0,0,1,1.26-1.2,1.86,1.86,0,0,1,.59-.36.13.13,0,0,1,.15.14s-.08.12-.23.28a10.73,10.73,0,0,0-2.22,2.64A13.57,13.57,0,0,0,76,118.24a23.88,23.88,0,0,0-.67,2.78,13,13,0,0,0-.21,2.13,6.2,6.2,0,0,0,1,3.56.45.45,0,0,1,.1.21c0,.1,0,.15-.14.15s-.3-.2-.57-.58a5.48,5.48,0,0,1-.66-1.3A7.28,7.28,0,0,1,74.36,122.61Z"/><path class="f36a6719-600b-4f9d-8e68-4358fc5ac805" d="M79.81,121.16a4.89,4.89,0,0,1,1.1-3,3,3,0,0,1,2.34-1.42,1.3,1.3,0,0,1,1.25.89c.08-.39.28-.59.6-.59a.35.35,0,0,1,.4.39,1.13,1.13,0,0,1,0,.31l-1,4.08a3.21,3.21,0,0,0-.1.78c0,.4.12.61.38.61h0c.37,0,.71-.6,1-1.79a.87.87,0,0,1,.1-.29A.23.23,0,0,1,86,121c.15,0,.23,0,.23.15s0,.11,0,.27-.1.35-.17.59a4.15,4.15,0,0,1-.23.61,1.23,1.23,0,0,1-1.1.85,1.25,1.25,0,0,1-1.24-1,2.47,2.47,0,0,1-1.81,1,1.58,1.58,0,0,1-1.32-.67A2.73,2.73,0,0,1,79.81,121.16Zm1,.66a2.32,2.32,0,0,0,.18.92.66.66,0,0,0,.65.42,1.68,1.68,0,0,0,1.16-.63,2.5,2.5,0,0,0,.71-1.07l.7-2.84a.71.71,0,0,0,0-.2,1.79,1.79,0,0,0-.28-1,.87.87,0,0,0-.75-.44,1.32,1.32,0,0,0-.92.48,3.48,3.48,0,0,0-.76,1.18,11.38,11.38,0,0,0-.48,1.57A7.42,7.42,0,0,0,80.83,121.82Z"/><path class="f36a6719-600b-4f9d-8e68-4358fc5ac805" d="M86.1,126.92s.08-.12.23-.27A10.88,10.88,0,0,0,88.55,124,13.44,13.44,0,0,0,90,120.89a25.55,25.55,0,0,0,.67-2.78,12.9,12.9,0,0,0,.21-2.12,6.27,6.27,0,0,0-1-3.56.48.48,0,0,1-.11-.22c0-.09,0-.14.15-.14s.3.19.56.58a5.61,5.61,0,0,1,.67,1.29,7.6,7.6,0,0,1,.4,2.58,14,14,0,0,1-.49,3.41,13.76,13.76,0,0,1-1.62,3.79,11.2,11.2,0,0,1-1.35,1.79,10.39,10.39,0,0,1-1.25,1.19,1.88,1.88,0,0,1-.6.37A.13.13,0,0,1,86.1,126.92Z"/><path class="f36a6719-600b-4f9d-8e68-4358fc5ac805" d="M259.71,122.61a14.1,14.1,0,0,1,.5-3.41,13.83,13.83,0,0,1,1.62-3.78,11.2,11.2,0,0,1,1.35-1.79,11.55,11.55,0,0,1,1.25-1.2,2,2,0,0,1,.59-.36.14.14,0,0,1,.16.14s-.08.12-.23.28a10.31,10.31,0,0,0-2.22,2.64,13.57,13.57,0,0,0-1.41,3.11,23.88,23.88,0,0,0-.67,2.78,13,13,0,0,0-.21,2.13,6.2,6.2,0,0,0,1,3.56.45.45,0,0,1,.1.21.13.13,0,0,1-.15.15c-.11,0-.3-.2-.56-.58a5.9,5.9,0,0,1-.67-1.3A7.51,7.51,0,0,1,259.71,122.61Z"/><path class="f36a6719-600b-4f9d-8e68-4358fc5ac805" d="M265.28,121.21a4,4,0,0,1,.16-1.24l1.47-5.93,0-.11a.66.66,0,0,0,0-.13.26.26,0,0,0,0-.14s-.08-.06-.2-.08a2.26,2.26,0,0,0-.52,0c-.24,0-.36-.06-.36-.17a.37.37,0,0,1,.05-.2.21.21,0,0,1,.12-.08l.17,0,1.49-.12a.78.78,0,0,1,.24,0q.21,0,.21.18a.52.52,0,0,1-.05.19l-1.06,4.2a2.4,2.4,0,0,1,1.59-.79h0a1.64,1.64,0,0,1,1.28.61,2.51,2.51,0,0,1,.54,1.73,4.85,4.85,0,0,1-1.09,3,3.05,3.05,0,0,1-2.36,1.41,1.46,1.46,0,0,1-1.26-.66A2.72,2.72,0,0,1,265.28,121.21Zm.84.51a1.78,1.78,0,0,0,.27,1.1.77.77,0,0,0,.61.34,1.26,1.26,0,0,0,.93-.48,4.09,4.09,0,0,0,.66-1,10.33,10.33,0,0,0,.58-1.78,8.08,8.08,0,0,0,.26-1.59,2.32,2.32,0,0,0-.18-.92.66.66,0,0,0-.64-.42c-.52,0-1,.37-1.59,1.1a2.27,2.27,0,0,0-.33.7A15.79,15.79,0,0,0,266.12,121.72Z"/><path class="f36a6719-600b-4f9d-8e68-4358fc5ac805" d="M270.7,126.92s.08-.12.23-.27a10.85,10.85,0,0,0,2.21-2.64,12.66,12.66,0,0,0,1.41-3.12,23.41,23.41,0,0,0,.67-2.78,12.9,12.9,0,0,0,.21-2.12,6.27,6.27,0,0,0-.95-3.56.44.44,0,0,1-.1-.22.13.13,0,0,1,.14-.14c.11,0,.3.19.57.58a6,6,0,0,1,.66,1.29,7.59,7.59,0,0,1,.41,2.58,14.81,14.81,0,0,1-2.11,7.2,11.26,11.26,0,0,1-1.36,1.79,9.08,9.08,0,0,1-1.25,1.19,1.78,1.78,0,0,1-.59.37A.13.13,0,0,1,270.7,126.92Z"/></svg>