<svg id="fd0079ef-feaa-4b40-86b8-be5b41428c91" data-name="Layer 1" xmlns="http://www.w3.org/2000/svg" xmlns:xlink="http://www.w3.org/1999/xlink" viewBox="0 0 161.08 131.66"><defs><style>.aee22a08-e584-4993-b5b2-8b4f142235b2{fill:none;}.b5ba51a3-2294-45d1-95c4-357451d988f0{fill:#ceddf3;}.a6a0766e-58a6-4f60-a464-1de3d3ef72a6{fill:#4f87c6;}.b1f1e012-0f8a-44ee-9091-51a88c49e8f4{fill:#222221;}.a112da4a-4a83-4ae7-8d43-16c1add7e9ef{fill:#fff;}.a57f9242-6fdd-401a-80a0-79ad7403f174{clip-path:url(#e8bbdb0d-86ef-476f-ae9d-aa017f77afe0);}.e37eced2-8702-424e-a5b6-de5d7843f516{fill:#d3a0a2;}.fd3724a7-e965-467d-870e-2897f4be309a{fill:#9f3340;}</style><clipPath id="e8bbdb0d-86ef-476f-ae9d-aa017f77afe0"><rect class="aee22a08-e584-4993-b5b2-8b4f142235b2" x="30.5" y="13.98" width="6.65" height="32.64" transform="translate(3.53 64.12) rotate(-90)"/></clipPath></defs><circle class="b5ba51a3-2294-45d1-95c4-357451d988f0" cx="67.59" cy="77.34" r="8.45"/><path class="a6a0766e-58a6-4f60-a464-1de3d3ef72a6" d="M67.59,86.16a8.83,8.83,0,1,1,8.83-8.82A8.84,8.84,0,0,1,67.59,86.16Zm0-16.9a8.08,8.08,0,1,0,8.08,8.08A8.08,8.08,0,0,0,67.59,69.26Z"/><path class="b1f1e012-0f8a-44ee-9091-51a88c49e8f4" d="M67.89,78.38a.73.73,0,0,1-.53-.22L32.84,43.63a.74.74,0,0,1,0-1.06.75.75,0,0,1,1.06,0L68.42,77.1a.75.75,0,0,1,0,1.06A.74.74,0,0,1,67.89,78.38Z"/><path class="b1f1e012-0f8a-44ee-9091-51a88c49e8f4" d="M67.81,58.6a2.08,2.08,0,0,1,.06-.26c0-.16.1-.36.18-.61a6.57,6.57,0,0,1,.24-.65,1.2,1.2,0,0,1,1.06-.79h0a1.19,1.19,0,0,1,.84.32,1.36,1.36,0,0,1,.42.87,2.57,2.57,0,0,1,2.15-1.19,1.78,1.78,0,0,1,1,.31,1.31,1.31,0,0,1,.53,1,2.65,2.65,0,0,1,2.25-1.32,1.81,1.81,0,0,1,1.11.35,1.43,1.43,0,0,1,.46,1.21,11.61,11.61,0,0,1-.91,3.34A4.43,4.43,0,0,0,77,62.32c0,.29.11.44.33.44.56,0,1-.63,1.4-1.89a.35.35,0,0,1,.08-.21.27.27,0,0,1,.17,0c.15,0,.22.05.22.14a1.55,1.55,0,0,1-.06.28,4.73,4.73,0,0,1-.57,1.25,1.92,1.92,0,0,1-.54.56,1.25,1.25,0,0,1-.73.24,1.07,1.07,0,0,1-.84-.35,1.24,1.24,0,0,1-.3-.85,3,3,0,0,1,.24-1,13.1,13.1,0,0,0,.87-3.32q0-1-.69-1c-.78,0-1.48.54-2.11,1.62a4.45,4.45,0,0,0-.38,1.08c0,.1-.06.27-.12.49s-.09.38-.12.49l-.6,2.39a.56.56,0,0,1-.54.4.4.4,0,0,1-.43-.39.76.76,0,0,1,0-.21l1-3.91a4.86,4.86,0,0,0,.14-1q0-1-.69-1c-.77,0-1.46.54-2.09,1.62a5,5,0,0,0-.36,1.09c0,.1-.07.27-.13.48s-.09.38-.12.5l-.59,2.39a.61.61,0,0,1-.57.39.45.45,0,0,1-.34-.12.39.39,0,0,1-.1-.27.52.52,0,0,1,0-.21L69.62,58a3.17,3.17,0,0,0,.11-.76q0-.6-.39-.6t-.57.45a6.14,6.14,0,0,0-.46,1.34.75.75,0,0,1-.1.29.26.26,0,0,1-.18,0C67.88,58.75,67.81,58.69,67.81,58.6Z"/><path class="b1f1e012-0f8a-44ee-9091-51a88c49e8f4" d="M79.55,60.92v-.27a2.17,2.17,0,0,0,1.61-.56c.09,0,.15,0,.16,0a.36.36,0,0,1,0,.19v4.91a.37.37,0,0,0,.13.34,1.91,1.91,0,0,0,.71.08h.29v.27c-.2,0-.68,0-1.42,0s-1.21,0-1.41,0v-.27h.28a1.78,1.78,0,0,0,.68-.08c.09,0,.13-.17.13-.34V60.69A2.74,2.74,0,0,1,79.55,60.92Z"/><path class="b1f1e012-0f8a-44ee-9091-51a88c49e8f4" d="M128.32,78.26a2.08,2.08,0,0,1,.06-.26c0-.16.1-.36.18-.61a4.68,4.68,0,0,1,.25-.65,1.19,1.19,0,0,1,1.05-.79h0a1.2,1.2,0,0,1,.84.32,1.44,1.44,0,0,1,.42.87A2.6,2.6,0,0,1,133.29,76a1.78,1.78,0,0,1,1.05.31,1.3,1.3,0,0,1,.52,1A2.67,2.67,0,0,1,137.12,76a1.78,1.78,0,0,1,1.1.35,1.44,1.44,0,0,1,.47,1.21,11.86,11.86,0,0,1-.92,3.35,4.6,4.6,0,0,0-.26,1.12c0,.29.11.44.33.44.56,0,1-.63,1.39-1.88a.58.58,0,0,1,.08-.22.34.34,0,0,1,.18,0c.14,0,.22,0,.22.14a1.73,1.73,0,0,1-.06.27,4.29,4.29,0,0,1-.21.58,4.42,4.42,0,0,1-.36.68,1.92,1.92,0,0,1-.55.55,1.21,1.21,0,0,1-.73.24,1.05,1.05,0,0,1-.83-.35,1.24,1.24,0,0,1-.3-.85,2.91,2.91,0,0,1,.23-1,13.1,13.1,0,0,0,.87-3.32c0-.66-.23-1-.68-1-.78,0-1.49.54-2.12,1.62A5.08,5.08,0,0,0,134.6,79c0,.11-.07.27-.12.49s-.1.38-.12.49l-.6,2.39a.56.56,0,0,1-.54.4.39.39,0,0,1-.32-.12.36.36,0,0,1-.11-.27.52.52,0,0,1,.05-.21l1-3.91a4.71,4.71,0,0,0,.13-1c0-.66-.23-1-.68-1-.77,0-1.47.54-2.09,1.63a5.08,5.08,0,0,0-.37,1.08q0,.17-.12.48c-.05.22-.09.38-.12.5l-.6,2.39a.59.59,0,0,1-.57.39.42.42,0,0,1-.33-.12.4.4,0,0,1-.11-.27.76.76,0,0,1,0-.21l1.13-4.51a3.12,3.12,0,0,0,.1-.76q0-.6-.39-.6c-.22,0-.41.15-.56.45a6.34,6.34,0,0,0-.46,1.34.87.87,0,0,1-.1.29.26.26,0,0,1-.18,0C128.4,78.41,128.32,78.35,128.32,78.26Z"/><path class="b1f1e012-0f8a-44ee-9091-51a88c49e8f4" d="M139.83,85.57a.93.93,0,0,1,0-.2.49.49,0,0,1,.08-.12l1.67-1.87a3.05,3.05,0,0,0,.92-1.94,1.61,1.61,0,0,0-.31-1,1,1,0,0,0-.86-.42,1.23,1.23,0,0,0-.71.23,1.42,1.42,0,0,0-.47.65h.12a.42.42,0,0,1,.33.14.47.47,0,0,1,.12.32.43.43,0,0,1-.15.36.53.53,0,0,1-.3.11h-.13a.48.48,0,0,1-.2-.14.47.47,0,0,1-.12-.34,1.55,1.55,0,0,1,.46-1.1,1.52,1.52,0,0,1,1.16-.48,1.88,1.88,0,0,1,1.31.47,1.59,1.59,0,0,1,.53,1.22,1.69,1.69,0,0,1-.08.5,4.4,4.4,0,0,1-.18.42,2.91,2.91,0,0,1-.39.48c-.19.19-.35.36-.5.5l-.73.66-.92.9h1.56a2.16,2.16,0,0,0,.83-.07,2.92,2.92,0,0,0,.19-.78h.22L143,85.57Z"/><path class="b1f1e012-0f8a-44ee-9091-51a88c49e8f4" d="M29.85,88.69a.73.73,0,0,1,.24-.59.78.78,0,0,1,.5-.2.47.47,0,0,1,.39.15.44.44,0,0,1,.13.33.73.73,0,0,1-.13.4.82.82,0,0,1-.35.29,2.83,2.83,0,0,0,1.05.16,1.83,1.83,0,0,0,1.44-.7,2.55,2.55,0,0,0,.42-.66,8.06,8.06,0,0,0,.27-.92l.31-1.26a2.3,2.3,0,0,1-1.59.8,1.6,1.6,0,0,1-1.33-.66,2.67,2.67,0,0,1-.5-1.64,4.72,4.72,0,0,1,1.08-3,3,3,0,0,1,2.33-1.37,1.34,1.34,0,0,1,1.26.86.64.64,0,0,1,.22-.43.61.61,0,0,1,.36-.13c.27,0,.41.13.41.39a1.43,1.43,0,0,1-.06.31l-1.64,6.57a2.68,2.68,0,0,1-1,1.52,3.14,3.14,0,0,1-2,.61Q29.85,89.56,29.85,88.69Zm1.87-3.84c0,.09,0,.19,0,.29l.09.41a.88.88,0,0,0,.25.44.7.7,0,0,0,.48.17,1.66,1.66,0,0,0,1.15-.61,2.48,2.48,0,0,0,.71-1l.68-2.73,0-.21a1.23,1.23,0,0,0,0-.27,2.19,2.19,0,0,0-.13-.46,1.1,1.1,0,0,0-.32-.46.82.82,0,0,0-.55-.19,1.32,1.32,0,0,0-.88.43,3.37,3.37,0,0,0-.74,1A10.73,10.73,0,0,0,32,83.28,7.42,7.42,0,0,0,31.72,84.85Z"/><polygon class="a112da4a-4a83-4ae7-8d43-16c1add7e9ef" points="40.81 33.62 33.4 43.7 26.51 33.62 40.81 33.62"/><path class="b1f1e012-0f8a-44ee-9091-51a88c49e8f4" d="M33.39,44.35,25.8,33.25H41.55ZM27.22,34l6.19,9,6.66-9Z"/><circle class="a112da4a-4a83-4ae7-8d43-16c1add7e9ef" cx="33.37" cy="43.1" r="3.7"/><path class="b1f1e012-0f8a-44ee-9091-51a88c49e8f4" d="M33.37,47.3a4.2,4.2,0,1,1,4.2-4.2A4.21,4.21,0,0,1,33.37,47.3Zm0-7.4a3.2,3.2,0,1,0,3.2,3.2A3.2,3.2,0,0,0,33.37,39.9Z"/><path class="b1f1e012-0f8a-44ee-9091-51a88c49e8f4" d="M119.93,95.25a.59.59,0,0,1-.23,0l-14.58-4.78a.75.75,0,1,1,.47-1.43l14.57,4.78a.75.75,0,0,1,.48,1A.74.74,0,0,1,119.93,95.25Z"/><path class="b1f1e012-0f8a-44ee-9091-51a88c49e8f4" d="M82.16,82.86l-.23,0L67.36,78.05a.75.75,0,0,1,.46-1.43L82.4,81.4a.75.75,0,0,1,.48.95A.76.76,0,0,1,82.16,82.86Z"/><path class="b1f1e012-0f8a-44ee-9091-51a88c49e8f4" d="M98.67,91.26a.59.59,0,0,1-.23,0,.72.72,0,0,1-.48-.48l-1.79-5.66-4.78,3.5a.79.79,0,0,1-.68.11.76.76,0,0,1-.48-.49l-1.78-5.66-4.79,3.51a.75.75,0,0,1-.68.1.72.72,0,0,1-.48-.48l-1-3.33a.75.75,0,0,1,.49-.94.74.74,0,0,1,.94.49l.74,2.33,4.78-3.5a.73.73,0,0,1,.68-.11.74.74,0,0,1,.48.49l1.79,5.65,4.78-3.5a.79.79,0,0,1,.68-.11.76.76,0,0,1,.48.49l1.78,5.66,4.79-3.51a.76.76,0,0,1,1.16.38l1,3.33a.74.74,0,0,1-.49.94.74.74,0,0,1-.94-.49l-.74-2.33-4.79,3.51A.77.77,0,0,1,98.67,91.26Z"/><circle class="a112da4a-4a83-4ae7-8d43-16c1add7e9ef" cx="67.59" cy="77.34" r="3.7"/><path class="b1f1e012-0f8a-44ee-9091-51a88c49e8f4" d="M67.59,81.53a4.2,4.2,0,1,1,4.2-4.19A4.2,4.2,0,0,1,67.59,81.53Zm0-7.39a3.2,3.2,0,1,0,3.2,3.2A3.2,3.2,0,0,0,67.59,74.14Z"/><g class="a57f9242-6fdd-401a-80a0-79ad7403f174"><rect class="b1f1e012-0f8a-44ee-9091-51a88c49e8f4" x="37.15" y="30.82" width="24.23" height="0.75" transform="translate(-7.61 44.03) rotate(-45.05)"/><rect class="b1f1e012-0f8a-44ee-9091-51a88c49e8f4" x="24.4" y="32.62" width="29.35" height="0.75" transform="translate(-11.89 37.34) rotate(-45.05)"/><rect class="b1f1e012-0f8a-44ee-9091-51a88c49e8f4" x="18.65" y="31.53" width="26.26" height="0.75" transform="translate(-13.26 31.86) rotate(-45.05)"/><rect class="b1f1e012-0f8a-44ee-9091-51a88c49e8f4" x="14.48" y="29.78" width="21.31" height="0.75" transform="translate(-13.97 26.64) rotate(-45.05)"/><rect class="b1f1e012-0f8a-44ee-9091-51a88c49e8f4" x="12.85" y="26.99" width="13.4" height="0.75" transform="translate(-13.63 21.86) rotate(-45.05)"/></g><rect class="b1f1e012-0f8a-44ee-9091-51a88c49e8f4" x="17.5" y="33.25" width="32.64" height="0.75"/><circle class="e37eced2-8702-424e-a5b6-de5d7843f516" cx="122.19" cy="95.24" r="10.12"/><path class="fd3724a7-e965-467d-870e-2897f4be309a" d="M122.19,105.74a10.5,10.5,0,1,1,10.5-10.5A10.51,10.51,0,0,1,122.19,105.74Zm0-20.25a9.75,9.75,0,1,0,9.75,9.75A9.76,9.76,0,0,0,122.19,85.49Z"/><path class="b1f1e012-0f8a-44ee-9091-51a88c49e8f4" d="M24.2,93.2h0a.34.34,0,0,1-.34-.35l.27-16.35a.39.39,0,0,1,.36-.35.35.35,0,0,1,.34.36l-.28,16.35A.35.35,0,0,1,24.2,93.2Z"/><path class="b1f1e012-0f8a-44ee-9091-51a88c49e8f4" d="M26.5,88.63a6.93,6.93,0,0,1-2.26.34,6.77,6.77,0,0,1-2.19-.42q1.05,3.57,2.11,7.14Z"/></svg>