<svg id="a6868a04-d001-4a63-aee3-0e5f3dfe5d5d" data-name="Layer 1" xmlns="http://www.w3.org/2000/svg" viewBox="0 0 344.72 181.84"><defs><style>.fa355c7c-51d4-4418-8be9-d6301155d371{font-size:15px;fill:#1b1b1a;}.a9eb041d-56f3-4bd1-b0b1-a4b9378c7a4a,.b2225e0d-b5a4-46c6-a6d1-cf8896e2bf65,.fa355c7c-51d4-4418-8be9-d6301155d371{font-family:CMUSerif-Italic, CMU Serif;font-style:italic;}.a9eb041d-56f3-4bd1-b0b1-a4b9378c7a4a,.e5232778-07bc-4d70-a7dd-ca591bb39afc{font-size:17.05px;}.a62560f5-a7cd-49a5-bbd0-d29b60f31463,.a9eb041d-56f3-4bd1-b0b1-a4b9378c7a4a,.e5232778-07bc-4d70-a7dd-ca591bb39afc{fill:#222221;}.e5232778-07bc-4d70-a7dd-ca591bb39afc{font-family:CMUSerif-Roman, CMU Serif;}.a01e7088-1514-4ee9-be7b-9f04825727cf,.ae540885-8cb6-47a4-9949-ac43afff9d9c,.b70905ab-f654-4bab-9f66-fdba71aa753d,.bcdbaaf3-d2a0-4e20-94c7-ead754234e18,.eceee7b3-5362-4643-84f7-48c9677a4bc9,.ee54cae1-5240-4c75-b247-19551fd3f295,.f623d32e-552c-4c05-9ba4-4abbfdc8da74{fill:none;}.a01e7088-1514-4ee9-be7b-9f04825727cf,.ae540885-8cb6-47a4-9949-ac43afff9d9c,.fa5e9444-e563-489d-91a5-d1cb6026f776{stroke:#222221;}.a01e7088-1514-4ee9-be7b-9f04825727cf,.a5530c29-5737-4f70-b416-fd2fac27b36e,.ae540885-8cb6-47a4-9949-ac43afff9d9c,.b70905ab-f654-4bab-9f66-fdba71aa753d,.eceee7b3-5362-4643-84f7-48c9677a4bc9,.fa5e9444-e563-489d-91a5-d1cb6026f776{stroke-miterlimit:10;}.a01e7088-1514-4ee9-be7b-9f04825727cf,.ae540885-8cb6-47a4-9949-ac43afff9d9c,.eceee7b3-5362-4643-84f7-48c9677a4bc9,.ede5ac93-e0be-4869-9313-55d017318088,.f151eef3-32ab-4859-9400-273b9314b0a7,.fdae1b03-b6aa-472c-a2bd-5bc02eee5418{stroke-width:0.75px;}.a01e7088-1514-4ee9-be7b-9f04825727cf{stroke-dasharray:1.97 0.99;}.ede5ac93-e0be-4869-9313-55d017318088{fill:#f1f1f1;stroke:#cbcbcb;}.bcdbaaf3-d2a0-4e20-94c7-ead754234e18,.ede5ac93-e0be-4869-9313-55d017318088,.ee54cae1-5240-4c75-b247-19551fd3f295,.f151eef3-32ab-4859-9400-273b9314b0a7,.f623d32e-552c-4c05-9ba4-4abbfdc8da74,.fdae1b03-b6aa-472c-a2bd-5bc02eee5418{stroke-linecap:round;stroke-linejoin:round;}.f151eef3-32ab-4859-9400-273b9314b0a7{fill:#ceddf3;}.ee54cae1-5240-4c75-b247-19551fd3f295,.f151eef3-32ab-4859-9400-273b9314b0a7{stroke:#4f87c6;}.fdae1b03-b6aa-472c-a2bd-5bc02eee5418{fill:#d5a2a4;}.bcdbaaf3-d2a0-4e20-94c7-ead754234e18,.fdae1b03-b6aa-472c-a2bd-5bc02eee5418{stroke:#9f3340;}.a5530c29-5737-4f70-b416-fd2fac27b36e,.eceee7b3-5362-4643-84f7-48c9677a4bc9,.f623d32e-552c-4c05-9ba4-4abbfdc8da74{stroke:#000;}.bcdbaaf3-d2a0-4e20-94c7-ead754234e18,.ee54cae1-5240-4c75-b247-19551fd3f295,.f623d32e-552c-4c05-9ba4-4abbfdc8da74{stroke-width:1.5px;}.a5530c29-5737-4f70-b416-fd2fac27b36e,.fa5e9444-e563-489d-91a5-d1cb6026f776{fill:#fff;}.b70905ab-f654-4bab-9f66-fdba71aa753d{stroke:#fff;}.a4d5b0b1-e358-4bcd-8bc0-e720b593ac0d{fill:#9f3340;}.ac7a286a-ef7b-48e9-9f7c-f22d1d7ca237{fill:#4f87c6;}</style></defs><text class="fa355c7c-51d4-4418-8be9-d6301155d371" transform="translate(59.06 168.41)">(a)</text><text class="fa355c7c-51d4-4418-8be9-d6301155d371" transform="translate(164.71 168.41)">(b)</text><text class="fa355c7c-51d4-4418-8be9-d6301155d371" transform="translate(267.59 168.41)">(c)</text><text class="a9eb041d-56f3-4bd1-b0b1-a4b9378c7a4a" transform="translate(87.28 58.87)">m</text><text class="e5232778-07bc-4d70-a7dd-ca591bb39afc" transform="translate(101.21 63.16) scale(0.58)">2</text><text class="e5232778-07bc-4d70-a7dd-ca591bb39afc" transform="translate(106.18 57.49)">,<tspan class="b2225e0d-b5a4-46c6-a6d1-cf8896e2bf65" x="4.72" y="0">I</tspan></text><text class="e5232778-07bc-4d70-a7dd-ca591bb39afc" transform="translate(117.46 63.16) scale(0.58)">2</text><text class="a9eb041d-56f3-4bd1-b0b1-a4b9378c7a4a" transform="translate(65.18 135.02)">m</text><text class="e5232778-07bc-4d70-a7dd-ca591bb39afc" transform="translate(79.11 139.32) scale(0.58)">1</text><text class="a9eb041d-56f3-4bd1-b0b1-a4b9378c7a4a" transform="translate(38.22 83.78)">l</text><line class="ae540885-8cb6-47a4-9949-ac43afff9d9c" x1="62.29" y1="57.47" x2="62.01" y2="58.43"/><line class="a01e7088-1514-4ee9-be7b-9f04825727cf" x1="61.73" y1="59.37" x2="44.25" y2="118.53"/><line class="ae540885-8cb6-47a4-9949-ac43afff9d9c" x1="44.11" y1="119" x2="43.83" y2="119.96"/><polygon points="43.05 116.8 43.64 120.54 46.17 117.72 43.05 116.8"/><polygon class="a62560f5-a7cd-49a5-bbd0-d29b60f31463" points="63.75 58.29 63.16 54.55 60.63 57.37 63.75 58.29"/><rect class="ede5ac93-e0be-4869-9313-55d017318088" x="64.26" y="56.85" width="4.85" height="70.17" transform="translate(28.78 -15.13) rotate(16.46)"/><rect class="f151eef3-32ab-4859-9400-273b9314b0a7" x="52.06" y="106.36" width="9.36" height="38.44" rx="4.12" transform="translate(37.91 -10.93) rotate(16.46)"/><rect class="fdae1b03-b6aa-472c-a2bd-5bc02eee5418" x="72.05" y="38.74" width="9.36" height="38.44" rx="4.12" transform="translate(-9.68 15.76) rotate(-11.04)"/><line class="ae540885-8cb6-47a4-9949-ac43afff9d9c" x1="76.72" y1="57.98" x2="61.29" y2="53.33"/><line class="eceee7b3-5362-4643-84f7-48c9677a4bc9" x1="56.74" y1="125.58" x2="41.31" y2="120.93"/><text class="a9eb041d-56f3-4bd1-b0b1-a4b9378c7a4a" transform="translate(76.64 101.88)">I</text><text class="e5232778-07bc-4d70-a7dd-ca591bb39afc" transform="translate(83.2 107.56) scale(0.58)">1</text><line class="f623d32e-552c-4c05-9ba4-4abbfdc8da74" x1="56.74" y1="125.58" x2="76.72" y2="57.98"/><circle class="fa5e9444-e563-489d-91a5-d1cb6026f776" cx="76.72" cy="57.96" r="2.56"/><circle cx="56.74" cy="125.58" r="1.67"/><text class="a9eb041d-56f3-4bd1-b0b1-a4b9378c7a4a" transform="translate(178.97 108.94)">u</text><text class="e5232778-07bc-4d70-a7dd-ca591bb39afc" transform="translate(188.1 112.34) scale(0.58)">1</text><text class="a9eb041d-56f3-4bd1-b0b1-a4b9378c7a4a" transform="translate(156.75 46.54)">u</text><text class="e5232778-07bc-4d70-a7dd-ca591bb39afc" transform="translate(165.88 49.95) scale(0.58)">2</text><path class="b70905ab-f654-4bab-9f66-fdba71aa753d" d="M171.72,40.31a11.19,11.19,0,0,1,21.35,1.6"/><path class="bcdbaaf3-d2a0-4e20-94c7-ead754234e18" d="M172.17,39.57a11.19,11.19,0,0,1,21.35,1.6"/><polygon class="a4d5b0b1-e358-4bcd-8bc0-e720b593ac0d" points="195.39 37.99 194.42 43.65 190.41 39.55 195.39 37.99"/><rect class="f151eef3-32ab-4859-9400-273b9314b0a7" x="161.68" y="106.84" width="9.23" height="37.94" rx="4.06" transform="translate(42.46 -41.96) rotate(16.46)"/><rect class="fdae1b03-b6aa-472c-a2bd-5bc02eee5418" x="181.41" y="40.1" width="9.23" height="37.94" rx="4.06" transform="translate(-7.87 36.71) rotate(-11.04)"/><line class="f623d32e-552c-4c05-9ba4-4abbfdc8da74" x1="166.3" y1="125.81" x2="186.02" y2="59.09"/><circle class="a5530c29-5737-4f70-b416-fd2fac27b36e" cx="186.02" cy="59.07" r="2.53"/><circle class="ac7a286a-ef7b-48e9-9f7c-f22d1d7ca237" cx="166.3" cy="125.81" r="1.64"/><line class="ee54cae1-5240-4c75-b247-19551fd3f295" x1="175.55" y1="94.42" x2="166.3" y2="125.81"/><path class="ac7a286a-ef7b-48e9-9f7c-f22d1d7ca237" d="M171.85,98.09a7.61,7.61,0,0,1,4.85,1.43q-.06-4.23-.14-8.46Z"/><text class="a9eb041d-56f3-4bd1-b0b1-a4b9378c7a4a" transform="translate(282.88 26.7)">u</text><text class="e5232778-07bc-4d70-a7dd-ca591bb39afc" transform="translate(292.02 30.11) scale(0.58)">1</text><text class="a9eb041d-56f3-4bd1-b0b1-a4b9378c7a4a" transform="translate(257 46.54)">u</text><text class="e5232778-07bc-4d70-a7dd-ca591bb39afc" transform="translate(266.13 49.95) scale(0.58)">2</text><rect class="f151eef3-32ab-4859-9400-273b9314b0a7" x="261.93" y="106.84" width="9.23" height="37.94" rx="4.06" transform="translate(46.57 -70.37) rotate(16.46)"/><rect class="fdae1b03-b6aa-472c-a2bd-5bc02eee5418" x="281.66" y="40.1" width="9.23" height="37.94" rx="4.06" transform="translate(-6.01 55.91) rotate(-11.04)"/><line class="f623d32e-552c-4c05-9ba4-4abbfdc8da74" x1="266.55" y1="125.81" x2="286.27" y2="59.09"/><circle cx="266.55" cy="125.81" r="1.64"/><line class="bcdbaaf3-d2a0-4e20-94c7-ead754234e18" x1="279.15" y1="23.94" x2="286.28" y2="59.07"/><path class="a4d5b0b1-e358-4bcd-8bc0-e720b593ac0d" d="M277.51,28.89a7.73,7.73,0,0,1,5-.93l-4-7.47Z"/><path class="b70905ab-f654-4bab-9f66-fdba71aa753d" d="M272.81,40.76a11.19,11.19,0,0,1,21.35,1.6"/><path class="bcdbaaf3-d2a0-4e20-94c7-ead754234e18" d="M272.42,39.57a11.19,11.19,0,0,1,21.35,1.6"/><polygon class="a4d5b0b1-e358-4bcd-8bc0-e720b593ac0d" points="295.64 37.99 294.67 43.65 290.66 39.55 295.64 37.99"/><circle class="a5530c29-5737-4f70-b416-fd2fac27b36e" cx="286.27" cy="59.07" r="2.53"/></svg>